<svg id="svg" version="1.1" xmlns="http://www.w3.org/2000/svg" xmlns:xlink="http://www.w3.org/1999/xlink" width="400" height="130.6122448979592" viewBox="0, 0, 400,130.6122448979592"><g id="svgg"><path id="path0" d="M63.785 26.333 C 63.708 26.628,63.558 26.667,62.500 26.667 C 61.442 26.667,61.292 26.706,61.215 27.000 C 61.141 27.281,60.988 27.333,60.231 27.333 C 59.444 27.333,59.333 27.375,59.333 27.667 C 59.333 27.949,59.222 28.000,58.604 28.000 C 58.183 28.000,57.792 28.098,57.681 28.233 C 57.575 28.360,57.228 28.514,56.911 28.573 C 56.566 28.638,56.333 28.780,56.333 28.924 C 56.333 29.058,56.188 29.167,56.011 29.167 C 55.834 29.167,55.642 29.317,55.583 29.500 C 55.505 29.748,55.331 29.833,54.905 29.833 C 54.444 29.833,54.333 29.898,54.333 30.167 C 54.333 30.383,54.222 30.500,54.018 30.500 C 53.844 30.500,53.663 30.602,53.615 30.726 C 53.568 30.851,53.297 30.999,53.014 31.055 C 52.709 31.116,52.500 31.262,52.500 31.412 C 52.500 31.556,52.354 31.667,52.167 31.667 C 51.944 31.667,51.833 31.778,51.833 32.000 C 51.833 32.222,51.722 32.333,51.500 32.333 C 51.278 32.333,51.167 32.444,51.167 32.667 C 51.167 32.889,51.056 33.000,50.833 33.000 C 50.648 33.000,50.500 33.111,50.500 33.250 C 50.500 33.387,50.387 33.500,50.250 33.500 C 50.111 33.500,50.000 33.648,50.000 33.833 C 50.000 34.056,49.889 34.167,49.667 34.167 C 49.444 34.167,49.333 34.278,49.333 34.500 C 49.333 34.722,49.222 34.833,49.000 34.833 C 48.778 34.833,48.667 34.944,48.667 35.167 C 48.667 35.389,48.556 35.500,48.333 35.500 C 48.111 35.500,48.000 35.611,48.000 35.833 C 48.000 36.019,47.889 36.167,47.750 36.167 C 47.612 36.167,47.500 36.268,47.500 36.391 C 47.500 36.514,47.350 36.751,47.167 36.917 C 46.983 37.083,46.833 37.394,46.833 37.609 C 46.833 37.889,46.739 38.000,46.500 38.000 C 46.315 38.000,46.167 38.111,46.167 38.250 C 46.167 38.387,46.017 38.650,45.833 38.833 C 45.650 39.017,45.500 39.317,45.500 39.500 C 45.500 39.683,45.394 39.833,45.265 39.833 C 45.120 39.833,44.986 40.090,44.917 40.500 C 44.847 40.910,44.713 41.167,44.569 41.167 C 44.411 41.167,44.333 41.359,44.333 41.750 C 44.333 42.111,44.206 42.460,44.000 42.667 C 43.778 42.889,43.667 43.222,43.667 43.667 C 43.667 44.125,43.594 44.333,43.434 44.333 C 43.108 44.333,43.000 44.710,43.000 45.847 C 43.000 46.576,42.940 46.833,42.769 46.833 C 42.374 46.833,42.338 47.413,42.338 53.667 C 42.338 59.920,42.374 60.500,42.769 60.500 C 42.944 60.500,43.000 60.787,43.000 61.682 C 43.000 62.724,43.040 62.875,43.333 62.952 C 43.614 63.025,43.667 63.179,43.667 63.925 C 43.667 64.664,43.722 64.828,44.000 64.917 C 44.245 64.995,44.333 65.169,44.333 65.577 C 44.333 65.916,44.430 66.168,44.583 66.227 C 44.729 66.283,44.833 66.532,44.833 66.822 C 44.833 67.151,44.947 67.383,45.167 67.500 C 45.385 67.617,45.500 67.849,45.500 68.173 C 45.500 68.556,45.575 68.667,45.833 68.667 C 46.105 68.667,46.167 68.778,46.167 69.266 C 46.167 69.724,46.245 69.885,46.500 69.952 C 46.683 70.000,46.833 70.143,46.833 70.269 C 46.833 70.396,46.939 70.500,47.069 70.500 C 47.213 70.500,47.347 70.757,47.417 71.167 C 47.480 71.543,47.623 71.833,47.745 71.833 C 47.864 71.833,48.000 71.983,48.048 72.167 C 48.096 72.350,48.246 72.500,48.382 72.500 C 48.517 72.500,48.667 72.650,48.715 72.833 C 48.763 73.017,48.922 73.167,49.068 73.167 C 49.214 73.167,49.333 73.279,49.333 73.417 C 49.333 73.556,49.481 73.667,49.667 73.667 C 49.889 73.667,50.000 73.778,50.000 74.000 C 50.000 74.185,50.111 74.333,50.250 74.333 C 50.389 74.333,50.500 74.481,50.500 74.667 C 50.500 74.882,50.611 75.000,50.814 75.000 C 50.988 75.000,51.167 75.149,51.215 75.333 C 51.263 75.517,51.422 75.667,51.568 75.667 C 51.714 75.667,51.833 75.779,51.833 75.917 C 51.833 76.056,51.981 76.167,52.167 76.167 C 52.389 76.167,52.500 76.278,52.500 76.500 C 52.500 76.685,52.611 76.833,52.750 76.833 C 52.887 76.833,53.150 76.983,53.333 77.167 C 53.517 77.350,53.808 77.500,53.981 77.500 C 54.154 77.500,54.333 77.649,54.382 77.833 C 54.441 78.060,54.609 78.167,54.906 78.167 C 55.147 78.167,55.387 78.279,55.440 78.417 C 55.492 78.554,55.715 78.667,55.934 78.667 C 56.164 78.667,56.333 78.765,56.333 78.899 C 56.333 79.179,56.692 79.333,57.346 79.333 C 57.650 79.333,57.908 79.457,58.039 79.667 C 58.178 79.889,58.427 80.000,58.790 80.000 C 59.143 80.000,59.333 80.081,59.333 80.232 C 59.333 80.538,59.702 80.667,60.579 80.667 C 61.064 80.667,61.329 80.748,61.394 80.917 C 61.468 81.111,61.799 81.167,62.892 81.167 C 64.154 81.167,64.303 81.200,64.382 81.500 C 64.468 81.831,64.609 81.833,83.901 81.833 L 103.333 81.833 103.333 70.310 C 103.333 59.671,103.355 58.771,103.616 58.580 C 103.817 58.433,103.919 58.054,103.969 57.257 C 104.017 56.515,104.117 56.111,104.270 56.053 C 104.421 55.995,104.500 55.691,104.500 55.168 C 104.500 54.512,104.559 54.357,104.833 54.285 C 105.022 54.236,105.167 54.058,105.167 53.875 C 105.167 53.697,105.317 53.416,105.500 53.250 C 105.683 53.084,105.833 52.810,105.833 52.641 C 105.833 52.471,105.952 52.333,106.099 52.333 C 106.245 52.333,106.404 52.183,106.452 52.000 C 106.500 51.817,106.643 51.667,106.769 51.667 C 106.896 51.667,107.000 51.582,107.000 51.477 C 107.000 51.261,107.776 50.500,107.997 50.500 C 108.078 50.500,108.192 50.350,108.250 50.167 C 108.308 49.983,108.466 49.833,108.600 49.833 C 108.734 49.833,108.887 49.721,108.940 49.583 C 108.992 49.446,109.140 49.333,109.268 49.333 C 109.396 49.333,109.500 49.183,109.500 49.000 C 109.500 48.759,109.611 48.667,109.903 48.667 C 110.478 48.667,110.833 48.501,110.833 48.232 C 110.833 48.079,111.026 48.000,111.397 48.000 C 111.821 48.000,111.983 47.917,112.048 47.667 C 112.122 47.383,112.276 47.333,113.068 47.333 C 113.889 47.333,114.000 47.294,114.000 47.000 C 114.000 46.686,114.111 46.667,115.917 46.667 C 117.722 46.667,117.833 46.686,117.833 47.000 C 117.833 47.292,117.944 47.333,118.731 47.333 C 119.488 47.333,119.641 47.385,119.715 47.667 C 119.776 47.902,119.942 48.000,120.278 48.000 C 120.573 48.000,120.832 48.127,120.961 48.333 C 121.076 48.517,121.281 48.667,121.418 48.667 C 121.555 48.667,121.667 48.743,121.667 48.836 C 121.667 48.929,121.929 49.131,122.250 49.284 C 122.663 49.481,122.833 49.672,122.833 49.939 C 122.833 50.147,122.933 50.377,123.054 50.450 C 123.176 50.523,123.323 50.715,123.382 50.875 C 123.441 51.035,123.604 51.167,123.745 51.167 C 123.925 51.167,124.000 51.337,124.000 51.750 C 124.000 52.222,124.063 52.333,124.333 52.333 C 124.632 52.333,124.667 52.444,124.667 53.415 C 124.667 54.317,124.722 54.532,125.000 54.705 C 125.329 54.911,125.333 55.094,125.333 68.373 L 125.333 81.833 128.417 81.833 L 131.500 81.833 131.500 68.115 C 131.500 56.311,131.466 54.352,131.255 54.074 C 131.095 53.862,131.009 53.342,131.005 52.567 C 131.001 51.601,130.939 51.330,130.667 51.083 C 130.431 50.870,130.333 50.570,130.333 50.058 C 130.333 49.444,130.282 49.333,130.000 49.333 C 129.722 49.333,129.667 49.222,129.667 48.667 C 129.667 48.111,129.611 48.000,129.333 48.000 C 129.063 48.000,129.000 47.889,129.000 47.417 C 129.000 46.944,128.937 46.833,128.667 46.833 C 128.444 46.833,128.333 46.722,128.333 46.500 C 128.333 46.315,128.222 46.167,128.083 46.167 C 127.944 46.167,127.833 46.019,127.833 45.833 C 127.833 45.611,127.722 45.500,127.500 45.500 C 127.278 45.500,127.167 45.389,127.167 45.167 C 127.167 44.944,127.056 44.833,126.833 44.833 C 126.611 44.833,126.500 44.722,126.500 44.500 C 126.500 44.278,126.389 44.167,126.167 44.167 C 125.981 44.167,125.833 44.056,125.833 43.917 C 125.833 43.779,125.726 43.667,125.595 43.667 C 125.463 43.667,125.308 43.517,125.250 43.333 C 125.171 43.085,124.998 43.000,124.572 43.000 C 124.111 43.000,124.000 42.935,124.000 42.667 C 124.000 42.402,123.889 42.333,123.457 42.333 C 123.094 42.333,122.844 42.223,122.705 42.000 C 122.542 41.739,122.317 41.667,121.665 41.667 C 121.037 41.667,120.833 41.605,120.833 41.417 C 120.833 41.201,120.280 41.167,116.851 41.167 C 113.465 41.167,112.855 41.204,112.773 41.417 C 112.705 41.594,112.428 41.667,111.823 41.667 C 111.109 41.667,110.954 41.721,110.882 42.000 C 110.813 42.261,110.654 42.333,110.147 42.333 C 109.722 42.333,109.386 42.448,109.167 42.667 C 108.983 42.850,108.721 43.000,108.583 43.000 C 108.444 43.000,108.333 43.148,108.333 43.333 C 108.333 43.604,108.222 43.667,107.745 43.667 C 107.375 43.667,107.120 43.760,107.060 43.917 C 107.008 44.054,106.860 44.167,106.732 44.167 C 106.604 44.167,106.500 44.317,106.500 44.500 C 106.500 44.722,106.389 44.833,106.167 44.833 C 105.983 44.833,105.696 44.970,105.529 45.138 C 105.362 45.305,105.099 45.490,104.946 45.549 C 104.792 45.608,104.667 45.771,104.667 45.911 C 104.667 46.056,104.522 46.167,104.333 46.167 C 104.118 46.167,104.000 46.278,104.000 46.481 C 104.000 46.654,103.851 46.833,103.667 46.882 C 103.336 46.968,103.333 46.886,103.331 37.026 C 103.329 31.558,103.268 26.988,103.193 26.871 C 103.091 26.709,102.350 26.670,100.071 26.704 L 97.083 26.750 97.041 51.208 L 96.999 75.667 81.583 75.667 C 66.278 75.667,66.167 75.664,66.167 75.333 C 66.167 75.030,66.056 75.000,64.917 75.000 C 63.778 75.000,63.667 74.970,63.667 74.667 C 63.667 74.375,63.556 74.333,62.769 74.333 C 62.012 74.333,61.859 74.281,61.785 74.000 C 61.722 73.761,61.558 73.667,61.200 73.667 C 60.911 73.667,60.662 73.562,60.606 73.417 C 60.546 73.260,60.291 73.167,59.922 73.167 C 59.444 73.167,59.333 73.104,59.333 72.833 C 59.333 72.618,59.222 72.500,59.019 72.500 C 58.846 72.500,58.667 72.351,58.618 72.167 C 58.556 71.928,58.391 71.833,58.035 71.833 C 57.679 71.833,57.514 71.739,57.452 71.500 C 57.404 71.317,57.245 71.167,57.099 71.167 C 56.953 71.167,56.833 71.054,56.833 70.917 C 56.833 70.778,56.685 70.667,56.500 70.667 C 56.278 70.667,56.167 70.556,56.167 70.333 C 56.167 70.111,56.056 70.000,55.833 70.000 C 55.611 70.000,55.500 69.889,55.500 69.667 C 55.500 69.483,55.415 69.333,55.311 69.333 C 55.088 69.333,54.333 68.554,54.333 68.325 C 54.333 68.238,54.183 68.167,54.000 68.167 C 53.778 68.167,53.667 68.056,53.667 67.833 C 53.667 67.611,53.556 67.500,53.333 67.500 C 53.111 67.500,53.000 67.389,53.000 67.167 C 53.000 66.983,52.896 66.833,52.769 66.833 C 52.636 66.833,52.490 66.584,52.428 66.250 C 52.362 65.901,52.221 65.667,52.076 65.667 C 51.942 65.667,51.833 65.517,51.833 65.333 C 51.833 65.111,51.722 65.000,51.500 65.000 C 51.222 65.000,51.167 64.889,51.167 64.333 C 51.167 63.778,51.111 63.667,50.833 63.667 C 50.567 63.667,50.500 63.556,50.500 63.115 C 50.500 62.812,50.390 62.418,50.255 62.240 C 50.121 62.062,50.008 61.638,50.005 61.298 C 50.001 60.852,49.906 60.628,49.667 60.500 C 49.383 60.348,49.333 60.151,49.333 59.174 C 49.333 57.880,49.235 57.500,48.899 57.500 C 48.708 57.500,48.667 56.881,48.667 54.000 C 48.667 51.119,48.708 50.500,48.899 50.500 C 49.225 50.500,49.333 50.124,49.333 48.986 C 49.333 48.222,49.408 47.925,49.667 47.667 C 49.886 47.447,50.000 47.111,50.000 46.684 C 50.000 46.262,50.087 46.002,50.250 45.940 C 50.426 45.872,50.500 45.597,50.500 45.005 C 50.500 44.278,50.544 44.167,50.833 44.167 C 51.091 44.167,51.167 44.056,51.167 43.678 C 51.167 43.336,51.266 43.157,51.500 43.083 C 51.683 43.025,51.833 42.833,51.833 42.655 C 51.833 42.478,51.937 42.333,52.065 42.333 C 52.197 42.333,52.343 42.084,52.406 41.750 C 52.471 41.401,52.612 41.167,52.758 41.167 C 52.891 41.167,53.000 41.017,53.000 40.833 C 53.000 40.611,53.111 40.500,53.333 40.500 C 53.556 40.500,53.667 40.389,53.667 40.167 C 53.667 39.973,53.778 39.833,53.932 39.833 C 54.078 39.833,54.237 39.683,54.285 39.500 C 54.333 39.317,54.467 39.167,54.583 39.167 C 54.699 39.167,54.834 39.017,54.882 38.833 C 54.930 38.650,55.088 38.500,55.234 38.500 C 55.380 38.500,55.500 38.387,55.500 38.250 C 55.500 38.112,55.620 38.000,55.766 38.000 C 55.912 38.000,56.070 37.850,56.118 37.667 C 56.167 37.482,56.346 37.333,56.519 37.333 C 56.722 37.333,56.833 37.215,56.833 37.000 C 56.833 36.778,56.944 36.667,57.167 36.667 C 57.389 36.667,57.500 36.556,57.500 36.333 C 57.500 36.063,57.611 36.000,58.083 36.000 C 58.491 36.000,58.667 35.925,58.667 35.750 C 58.667 35.611,58.815 35.500,59.000 35.500 C 59.222 35.500,59.333 35.389,59.333 35.167 C 59.333 34.895,59.444 34.833,59.932 34.833 C 60.391 34.833,60.552 34.755,60.618 34.500 C 60.684 34.250,60.846 34.167,61.269 34.167 C 61.722 34.167,61.833 34.101,61.833 33.833 C 61.833 33.540,61.944 33.500,62.750 33.500 C 63.419 33.500,63.667 33.438,63.667 33.269 C 63.667 33.103,63.976 33.019,64.770 32.969 C 65.555 32.919,65.933 32.817,66.080 32.616 C 66.363 32.229,75.167 32.178,75.167 32.563 C 75.167 32.816,75.870 33.000,76.836 33.000 C 77.241 33.000,77.498 33.089,77.560 33.250 C 77.630 33.431,77.912 33.500,78.578 33.500 C 79.389 33.500,79.500 33.540,79.500 33.833 C 79.500 34.101,79.611 34.167,80.064 34.167 C 80.488 34.167,80.649 34.250,80.715 34.500 C 80.782 34.755,80.942 34.833,81.401 34.833 C 81.889 34.833,82.000 34.895,82.000 35.167 C 82.000 35.389,82.111 35.500,82.333 35.500 C 82.519 35.500,82.667 35.611,82.667 35.750 C 82.667 35.925,82.843 36.000,83.250 36.000 C 83.722 36.000,83.833 36.063,83.833 36.333 C 83.833 36.556,83.944 36.667,84.167 36.667 C 84.389 36.667,84.500 36.778,84.500 37.000 C 84.500 37.222,84.611 37.333,84.833 37.333 C 85.017 37.333,85.167 37.418,85.167 37.523 C 85.167 37.745,85.946 38.500,86.175 38.500 C 86.262 38.500,86.333 38.620,86.333 38.766 C 86.333 38.912,86.483 39.070,86.667 39.118 C 86.851 39.167,87.000 39.346,87.000 39.519 C 87.000 39.722,87.118 39.833,87.333 39.833 C 87.556 39.833,87.667 39.944,87.667 40.167 C 87.667 40.350,87.770 40.500,87.897 40.500 C 88.024 40.500,88.167 40.650,88.215 40.833 C 88.286 41.106,88.442 41.167,89.066 41.167 C 89.650 41.167,89.880 41.088,90.039 40.833 C 90.153 40.650,90.341 40.500,90.457 40.500 C 90.572 40.500,90.667 40.350,90.667 40.167 C 90.667 39.960,90.778 39.833,90.960 39.833 C 91.121 39.833,91.347 39.683,91.461 39.500 C 91.576 39.317,91.815 39.167,91.993 39.167 C 92.339 39.167,93.167 38.491,93.167 38.209 C 93.167 38.115,93.317 38.000,93.500 37.952 C 93.745 37.888,93.833 37.724,93.833 37.333 C 93.833 36.942,93.745 36.779,93.500 36.715 C 93.317 36.667,93.167 36.522,93.167 36.392 C 93.167 36.262,93.054 36.113,92.917 36.060 C 92.779 36.008,92.667 35.860,92.667 35.732 C 92.667 35.604,92.517 35.500,92.333 35.500 C 92.111 35.500,92.000 35.389,92.000 35.167 C 92.000 34.944,91.889 34.833,91.667 34.833 C 91.444 34.833,91.333 34.722,91.333 34.500 C 91.333 34.278,91.222 34.167,91.000 34.167 C 90.778 34.167,90.667 34.056,90.667 33.833 C 90.667 33.648,90.556 33.500,90.417 33.500 C 90.279 33.500,90.167 33.387,90.167 33.250 C 90.167 33.111,90.019 33.000,89.833 33.000 C 89.611 33.000,89.500 32.889,89.500 32.667 C 89.500 32.444,89.389 32.333,89.167 32.333 C 88.944 32.333,88.833 32.222,88.833 32.000 C 88.833 31.778,88.722 31.667,88.500 31.667 C 88.317 31.667,88.167 31.559,88.167 31.428 C 88.167 31.297,88.024 31.144,87.849 31.088 C 87.674 31.033,87.489 30.878,87.437 30.744 C 87.384 30.604,87.128 30.500,86.839 30.500 C 86.444 30.500,86.333 30.427,86.333 30.167 C 86.333 29.944,86.222 29.833,86.000 29.833 C 85.778 29.833,85.667 29.722,85.667 29.500 C 85.667 29.232,85.556 29.167,85.103 29.167 C 84.679 29.167,84.517 29.084,84.452 28.833 C 84.385 28.578,84.224 28.500,83.766 28.500 C 83.344 28.500,83.167 28.426,83.167 28.250 C 83.167 28.074,82.989 28.000,82.568 28.000 C 82.109 28.000,81.948 27.922,81.882 27.667 C 81.808 27.387,81.654 27.333,80.917 27.333 C 80.179 27.333,80.025 27.280,79.952 27.000 C 79.875 26.706,79.724 26.667,78.682 26.667 C 77.783 26.667,77.500 26.611,77.500 26.434 C 77.500 26.025,77.086 26.000,70.422 26.000 C 64.012 26.000,63.870 26.007,63.785 26.333 M260.014 40.153 C 259.711 40.455,259.465 40.500,258.097 40.500 C 256.387 40.500,256.000 40.580,256.000 40.934 C 256.000 41.101,255.771 41.167,255.187 41.167 C 254.668 41.167,254.299 41.257,254.167 41.417 C 254.053 41.554,253.825 41.667,253.660 41.667 C 253.182 41.667,252.833 41.850,252.833 42.101 C 252.833 42.236,252.664 42.333,252.430 42.333 C 251.855 42.333,251.500 42.499,251.500 42.768 C 251.500 42.896,251.350 43.000,251.167 43.000 C 250.944 43.000,250.833 43.111,250.833 43.333 C 250.833 43.592,250.722 43.667,250.339 43.667 C 250.016 43.667,249.783 43.782,249.667 44.000 C 249.569 44.183,249.378 44.333,249.244 44.333 C 249.110 44.333,249.000 44.437,249.000 44.564 C 249.000 44.691,248.850 44.834,248.667 44.882 C 248.483 44.930,248.333 45.080,248.333 45.215 C 248.333 45.350,248.183 45.500,248.000 45.548 C 247.817 45.596,247.667 45.755,247.667 45.901 C 247.667 46.047,247.554 46.167,247.417 46.167 C 247.278 46.167,247.167 46.315,247.167 46.500 C 247.167 46.722,247.056 46.833,246.833 46.833 C 246.589 46.833,246.500 46.944,246.500 47.249 C 246.500 47.483,246.355 47.754,246.167 47.872 C 245.983 47.987,245.833 48.212,245.833 48.373 C 245.833 48.556,245.707 48.667,245.500 48.667 C 245.274 48.667,245.167 48.778,245.167 49.012 C 245.167 49.202,245.054 49.470,244.917 49.607 C 244.779 49.745,244.667 49.993,244.667 50.159 C 244.667 50.325,244.517 50.500,244.333 50.548 C 244.081 50.614,244.000 50.776,244.000 51.215 C 244.000 51.654,243.919 51.816,243.667 51.882 C 243.390 51.954,243.333 52.109,243.333 52.798 C 243.333 53.488,243.277 53.643,243.000 53.715 C 242.717 53.789,242.667 53.942,242.667 54.734 C 242.667 55.412,242.604 55.667,242.438 55.667 C 241.856 55.667,241.757 65.502,242.333 66.167 C 242.586 66.458,242.667 66.790,242.667 67.541 C 242.667 68.391,242.714 68.544,243.000 68.618 C 243.260 68.686,243.333 68.846,243.333 69.342 C 243.333 69.831,243.410 70.002,243.667 70.083 C 243.900 70.157,244.000 70.336,244.000 70.678 C 244.000 70.947,244.150 71.317,244.333 71.500 C 244.517 71.683,244.667 71.983,244.667 72.167 C 244.667 72.352,244.778 72.500,244.917 72.500 C 245.085 72.500,245.167 72.668,245.167 73.016 C 245.167 73.391,245.257 73.555,245.500 73.618 C 245.684 73.667,245.833 73.846,245.833 74.019 C 245.833 74.222,245.951 74.333,246.167 74.333 C 246.389 74.333,246.500 74.444,246.500 74.667 C 246.500 74.850,246.650 75.150,246.833 75.333 C 247.017 75.517,247.167 75.779,247.167 75.917 C 247.167 76.054,247.274 76.167,247.405 76.167 C 247.537 76.167,247.692 76.317,247.750 76.500 C 247.808 76.683,247.963 76.833,248.095 76.833 C 248.226 76.833,248.333 76.953,248.333 77.099 C 248.333 77.245,248.483 77.404,248.667 77.452 C 248.850 77.500,249.000 77.643,249.000 77.769 C 249.000 77.896,249.150 78.000,249.333 78.000 C 249.517 78.000,249.817 78.150,250.000 78.333 C 250.183 78.517,250.446 78.667,250.583 78.667 C 250.722 78.667,250.833 78.815,250.833 79.000 C 250.833 79.278,250.944 79.333,251.500 79.333 C 252.056 79.333,252.167 79.389,252.167 79.667 C 252.167 79.934,252.278 80.000,252.731 80.000 C 253.154 80.000,253.316 80.083,253.382 80.333 C 253.448 80.586,253.609 80.667,254.050 80.667 C 254.413 80.667,254.667 80.761,254.727 80.917 C 254.800 81.106,255.107 81.167,255.995 81.167 C 257.056 81.167,257.167 81.198,257.167 81.500 C 257.167 81.833,257.278 81.833,308.917 81.833 C 356.157 81.833,360.667 81.810,360.667 81.568 C 360.667 81.422,360.819 81.262,361.005 81.214 C 361.508 81.082,361.440 76.957,360.933 76.860 C 360.759 76.827,360.463 76.657,360.277 76.483 C 359.945 76.174,358.804 76.167,309.820 76.167 C 265.425 76.167,259.691 76.138,259.606 75.917 C 259.538 75.737,259.257 75.667,258.614 75.667 C 257.930 75.667,257.647 75.588,257.417 75.333 C 257.215 75.110,256.903 75.000,256.474 75.000 C 255.944 75.000,255.833 74.942,255.833 74.667 C 255.833 74.458,255.722 74.333,255.537 74.333 C 255.374 74.333,255.112 74.183,254.955 74.000 C 254.798 73.817,254.519 73.667,254.335 73.667 C 254.148 73.667,254.000 73.556,254.000 73.417 C 254.000 73.278,253.852 73.167,253.667 73.167 C 253.444 73.167,253.333 73.056,253.333 72.833 C 253.333 72.611,253.222 72.500,253.000 72.500 C 252.778 72.500,252.667 72.389,252.667 72.167 C 252.667 71.981,252.556 71.833,252.417 71.833 C 252.279 71.833,252.167 71.714,252.167 71.568 C 252.167 71.422,252.017 71.263,251.833 71.215 C 251.650 71.167,251.500 71.024,251.500 70.897 C 251.500 70.770,251.350 70.667,251.167 70.667 C 250.922 70.667,250.833 70.556,250.833 70.248 C 250.833 70.018,250.683 69.702,250.500 69.545 C 250.317 69.388,250.167 69.126,250.167 68.963 C 250.167 68.800,250.054 68.667,249.917 68.667 C 249.744 68.667,249.667 68.494,249.667 68.109 C 249.667 67.763,249.540 67.437,249.333 67.250 C 249.119 67.056,248.999 66.734,248.998 66.349 C 248.995 65.503,248.833 65.000,248.564 65.000 C 248.388 65.000,248.333 64.703,248.333 63.750 L 248.333 62.500 264.875 62.490 C 273.973 62.485,281.717 62.428,282.083 62.363 L 282.750 62.245 282.797 60.286 C 282.836 58.651,282.802 58.311,282.589 58.229 C 282.386 58.151,282.333 57.826,282.333 56.650 C 282.333 55.350,282.293 55.144,282.000 54.961 C 281.741 54.800,281.667 54.573,281.667 53.944 C 281.667 53.276,281.609 53.120,281.333 53.048 C 281.056 52.976,281.000 52.821,281.000 52.132 C 281.000 51.442,280.944 51.287,280.667 51.215 C 280.418 51.150,280.333 50.988,280.333 50.575 C 280.333 50.169,280.245 49.994,280.000 49.917 C 279.817 49.858,279.667 49.713,279.667 49.593 C 279.667 49.472,279.554 49.281,279.417 49.167 C 279.279 49.053,279.167 48.774,279.167 48.547 C 279.167 48.276,279.053 48.106,278.833 48.048 C 278.649 48.000,278.500 47.821,278.500 47.647 C 278.500 47.451,278.382 47.333,278.186 47.333 C 278.012 47.333,277.833 47.184,277.785 47.000 C 277.737 46.817,277.578 46.667,277.432 46.667 C 277.286 46.667,277.167 46.554,277.167 46.417 C 277.167 46.279,277.054 46.167,276.917 46.167 C 276.778 46.167,276.667 46.019,276.667 45.833 C 276.667 45.611,276.556 45.500,276.333 45.500 C 276.111 45.500,276.000 45.389,276.000 45.167 C 276.000 44.944,275.889 44.833,275.667 44.833 C 275.473 44.833,275.333 44.722,275.333 44.568 C 275.333 44.422,275.183 44.263,275.000 44.215 C 274.817 44.167,274.667 44.024,274.667 43.897 C 274.667 43.770,274.525 43.667,274.353 43.667 C 274.179 43.667,274.000 43.518,273.952 43.333 C 273.888 43.091,273.724 43.000,273.349 43.000 C 272.944 43.000,272.833 42.928,272.833 42.667 C 272.833 42.398,272.722 42.333,272.261 42.333 C 271.836 42.333,271.662 42.248,271.583 42.000 C 271.505 41.752,271.331 41.667,270.905 41.667 C 270.508 41.667,270.333 41.590,270.333 41.417 C 270.333 41.222,270.111 41.167,269.333 41.167 C 268.444 41.167,268.333 41.130,268.333 40.833 C 268.333 40.520,268.222 40.500,266.508 40.500 C 264.943 40.500,264.660 40.458,264.520 40.208 C 264.248 39.720,260.492 39.674,260.014 40.153 M150.500 40.833 C 150.500 41.137,150.389 41.167,149.250 41.167 C 148.250 41.167,148.000 41.217,148.000 41.417 C 148.000 41.593,147.822 41.667,147.401 41.667 C 146.942 41.667,146.782 41.745,146.715 42.000 C 146.649 42.253,146.488 42.333,146.048 42.333 C 145.609 42.333,145.448 42.414,145.382 42.667 C 145.316 42.917,145.154 43.000,144.731 43.000 C 144.278 43.000,144.167 43.066,144.167 43.333 C 144.167 43.556,144.056 43.667,143.833 43.667 C 143.650 43.667,143.500 43.771,143.500 43.898 C 143.500 44.031,143.251 44.176,142.917 44.239 C 142.567 44.305,142.333 44.446,142.333 44.591 C 142.333 44.724,142.214 44.833,142.068 44.833 C 141.922 44.833,141.763 44.983,141.715 45.167 C 141.667 45.351,141.488 45.500,141.314 45.500 C 141.118 45.500,141.000 45.618,141.000 45.814 C 141.000 45.988,140.851 46.167,140.667 46.215 C 140.483 46.263,140.333 46.422,140.333 46.568 C 140.333 46.714,140.224 46.833,140.091 46.833 C 139.946 46.833,139.805 47.067,139.739 47.417 C 139.676 47.751,139.531 48.000,139.398 48.000 C 139.271 48.000,139.167 48.150,139.167 48.333 C 139.167 48.556,139.056 48.667,138.833 48.667 C 138.598 48.667,138.500 48.778,138.500 49.043 C 138.500 49.250,138.350 49.513,138.167 49.628 C 137.983 49.742,137.833 49.977,137.833 50.149 C 137.833 50.321,137.684 50.500,137.500 50.548 C 137.245 50.615,137.167 50.776,137.167 51.234 C 137.167 51.638,137.090 51.833,136.932 51.833 C 136.777 51.833,136.659 52.119,136.582 52.679 C 136.516 53.159,136.365 53.562,136.233 53.613 C 136.074 53.674,136.000 53.983,136.000 54.582 C 136.000 55.321,135.947 55.475,135.667 55.548 C 135.355 55.630,135.333 55.776,135.333 57.798 C 135.333 59.859,135.317 59.965,134.981 60.053 C 134.509 60.177,134.563 62.557,135.046 62.910 C 135.288 63.087,135.333 63.411,135.333 64.977 C 135.333 66.611,135.373 66.873,135.667 67.167 C 135.912 67.412,136.000 67.722,136.000 68.339 C 136.000 68.923,136.074 69.206,136.245 69.271 C 136.380 69.323,136.539 69.621,136.597 69.933 C 136.658 70.255,136.804 70.500,136.935 70.500 C 137.090 70.500,137.167 70.699,137.167 71.099 C 137.167 71.558,137.245 71.718,137.500 71.785 C 137.748 71.850,137.833 72.012,137.833 72.417 C 137.833 72.821,137.919 72.984,138.167 73.048 C 138.350 73.096,138.500 73.255,138.500 73.401 C 138.500 73.556,138.639 73.667,138.833 73.667 C 139.104 73.667,139.167 73.778,139.167 74.255 C 139.167 74.625,139.260 74.880,139.417 74.940 C 139.554 74.992,139.667 75.135,139.667 75.257 C 139.667 75.378,139.817 75.525,140.000 75.583 C 140.183 75.642,140.333 75.797,140.333 75.928 C 140.333 76.059,140.483 76.167,140.667 76.167 C 140.889 76.167,141.000 76.278,141.000 76.500 C 141.000 76.722,141.111 76.833,141.333 76.833 C 141.556 76.833,141.667 76.944,141.667 77.167 C 141.667 77.350,141.774 77.500,141.905 77.500 C 142.037 77.500,142.192 77.650,142.250 77.833 C 142.308 78.017,142.455 78.167,142.577 78.167 C 142.698 78.167,142.841 78.279,142.894 78.417 C 142.954 78.574,143.209 78.667,143.578 78.667 C 144.056 78.667,144.167 78.730,144.167 79.000 C 144.167 79.215,144.278 79.333,144.481 79.333 C 144.654 79.333,144.833 79.482,144.882 79.667 C 144.941 79.892,145.109 80.000,145.401 80.000 C 145.639 80.000,145.983 80.150,146.167 80.333 C 146.389 80.556,146.722 80.667,147.167 80.667 C 147.648 80.667,147.833 80.736,147.833 80.917 C 147.833 81.113,148.065 81.167,148.915 81.167 C 149.817 81.167,150.032 81.222,150.205 81.500 C 150.410 81.827,150.594 81.833,160.110 81.833 C 169.915 81.833,170.333 81.816,170.333 81.399 C 170.333 81.226,170.590 81.167,171.333 81.167 C 172.111 81.167,172.333 81.111,172.333 80.917 C 172.333 80.727,172.539 80.667,173.182 80.667 C 173.891 80.667,174.046 80.612,174.118 80.333 C 174.184 80.081,174.346 80.000,174.785 80.000 C 175.224 80.000,175.386 79.919,175.452 79.667 C 175.500 79.481,175.679 79.333,175.854 79.333 C 176.028 79.333,176.298 79.183,176.455 79.000 C 176.612 78.817,176.874 78.667,177.037 78.667 C 177.200 78.667,177.333 78.554,177.333 78.417 C 177.333 78.278,177.481 78.167,177.667 78.167 C 177.889 78.167,178.000 78.056,178.000 77.833 C 178.000 77.611,178.111 77.500,178.333 77.500 C 178.556 77.500,178.667 77.389,178.667 77.167 C 178.667 76.944,178.778 76.833,179.000 76.833 C 179.222 76.833,179.333 76.722,179.333 76.500 C 179.333 76.315,179.444 76.167,179.583 76.167 C 179.721 76.167,179.833 76.063,179.833 75.936 C 179.833 75.809,179.983 75.666,180.167 75.618 C 180.350 75.570,180.500 75.420,180.500 75.285 C 180.500 75.150,180.650 75.000,180.833 74.952 C 181.058 74.893,181.167 74.724,181.167 74.434 C 181.167 74.183,181.306 73.916,181.500 73.795 C 181.683 73.680,181.833 73.510,181.833 73.417 C 181.833 73.323,181.983 73.153,182.167 73.039 C 182.379 72.906,182.500 72.650,182.500 72.332 C 182.500 72.000,182.583 71.833,182.750 71.833 C 182.931 71.833,183.000 71.648,183.000 71.167 C 183.000 70.611,183.056 70.500,183.333 70.500 C 183.601 70.500,183.667 70.389,183.667 69.936 C 183.667 69.512,183.750 69.351,184.000 69.285 C 184.278 69.212,184.333 69.058,184.333 68.357 C 184.333 67.730,184.407 67.475,184.625 67.353 C 184.860 67.222,184.928 66.907,184.976 65.720 C 185.017 64.687,185.104 64.210,185.267 64.117 C 185.456 64.009,185.500 63.244,185.500 60.075 C 185.500 56.278,185.509 56.167,185.833 56.167 C 186.125 56.167,186.167 56.056,186.167 55.269 C 186.167 54.512,186.219 54.359,186.500 54.285 C 186.753 54.219,186.833 54.058,186.833 53.618 C 186.833 53.179,186.914 53.018,187.167 52.952 C 187.409 52.888,187.500 52.724,187.500 52.349 C 187.500 52.002,187.582 51.833,187.750 51.833 C 187.889 51.833,188.000 51.685,188.000 51.500 C 188.000 51.306,188.111 51.167,188.266 51.167 C 188.412 51.167,188.570 51.017,188.618 50.833 C 188.666 50.650,188.816 50.500,188.952 50.500 C 189.087 50.500,189.237 50.350,189.285 50.167 C 189.333 49.983,189.435 49.833,189.512 49.833 C 189.704 49.833,190.500 49.022,190.500 48.826 C 190.500 48.738,190.650 48.667,190.833 48.667 C 191.056 48.667,191.167 48.556,191.167 48.333 C 191.167 48.062,191.278 48.000,191.766 48.000 C 192.224 48.000,192.385 47.922,192.452 47.667 C 192.517 47.416,192.679 47.333,193.103 47.333 C 193.556 47.333,193.667 47.268,193.667 47.000 C 193.667 46.680,193.778 46.667,196.481 46.667 C 199.154 46.667,199.299 46.683,199.382 47.000 C 199.448 47.253,199.609 47.333,200.048 47.333 C 200.488 47.333,200.649 47.414,200.715 47.667 C 200.778 47.909,200.942 48.000,201.318 48.000 C 201.678 48.000,201.833 48.080,201.833 48.266 C 201.833 48.412,201.983 48.570,202.167 48.618 C 202.350 48.666,202.500 48.816,202.500 48.952 C 202.500 49.087,202.650 49.237,202.833 49.285 C 203.072 49.348,203.167 49.512,203.167 49.868 C 203.167 50.224,203.261 50.389,203.500 50.452 C 203.750 50.517,203.833 50.679,203.833 51.103 C 203.833 51.474,203.913 51.667,204.066 51.667 C 204.240 51.667,204.313 51.997,204.358 52.983 C 204.401 53.939,204.497 54.387,204.709 54.621 C 204.981 54.922,205.000 55.809,205.000 68.055 L 205.000 81.167 208.167 81.167 L 211.333 81.167 211.333 69.583 C 211.333 59.832,211.370 58.000,211.564 58.000 C 211.878 58.000,211.995 57.472,211.998 56.042 C 212.000 55.080,212.051 54.833,212.250 54.833 C 212.424 54.833,212.500 54.658,212.500 54.256 C 212.500 53.849,212.598 53.626,212.833 53.500 C 213.047 53.386,213.167 53.151,213.167 52.847 C 213.167 52.512,213.265 52.346,213.500 52.285 C 213.743 52.222,213.833 52.058,213.833 51.682 C 213.833 51.322,213.913 51.167,214.099 51.167 C 214.245 51.167,214.404 51.017,214.452 50.833 C 214.500 50.650,214.643 50.500,214.769 50.500 C 214.896 50.500,215.000 50.350,215.000 50.167 C 215.000 49.944,215.111 49.833,215.333 49.833 C 215.519 49.833,215.667 49.722,215.667 49.583 C 215.667 49.446,215.786 49.333,215.932 49.333 C 216.078 49.333,216.237 49.183,216.285 49.000 C 216.333 48.816,216.512 48.667,216.685 48.667 C 216.857 48.667,217.091 48.517,217.205 48.333 C 217.320 48.150,217.583 48.000,217.790 48.000 C 218.056 48.000,218.167 47.902,218.167 47.667 C 218.167 47.390,218.278 47.333,218.820 47.333 C 219.634 47.333,220.000 47.199,220.000 46.899 C 220.000 46.475,225.010 46.570,225.378 47.000 C 225.575 47.230,225.870 47.333,226.332 47.333 C 226.889 47.333,227.000 47.389,227.000 47.667 C 227.000 47.882,227.111 48.000,227.314 48.000 C 227.488 48.000,227.667 48.149,227.715 48.333 C 227.763 48.517,227.922 48.667,228.068 48.667 C 228.214 48.667,228.333 48.779,228.333 48.917 C 228.333 49.054,228.437 49.167,228.564 49.167 C 228.691 49.167,228.834 49.317,228.882 49.500 C 228.930 49.683,229.088 49.833,229.234 49.833 C 229.426 49.833,229.500 49.993,229.500 50.405 C 229.500 50.831,229.585 51.005,229.833 51.083 C 230.108 51.171,230.167 51.336,230.167 52.027 C 230.167 52.724,230.222 52.879,230.500 52.952 C 230.830 53.038,230.833 53.179,230.833 67.103 L 230.833 81.167 233.917 81.167 L 237.000 81.167 237.000 66.925 C 237.000 54.933,236.963 52.662,236.768 52.550 C 236.608 52.458,236.517 51.987,236.474 51.027 C 236.427 49.948,236.348 49.590,236.123 49.425 C 235.946 49.296,235.833 48.992,235.833 48.647 C 235.833 48.261,235.727 48.014,235.500 47.872 C 235.312 47.754,235.167 47.483,235.167 47.249 C 235.167 47.020,235.017 46.683,234.833 46.500 C 234.650 46.317,234.500 46.017,234.500 45.833 C 234.500 45.611,234.389 45.500,234.167 45.500 C 233.944 45.500,233.833 45.389,233.833 45.167 C 233.833 44.981,233.722 44.833,233.583 44.833 C 233.446 44.833,233.333 44.748,233.333 44.644 C 233.333 44.381,232.535 43.667,232.241 43.667 C 232.109 43.667,232.000 43.517,232.000 43.333 C 232.000 43.111,231.889 43.000,231.667 43.000 C 231.444 43.000,231.333 42.889,231.333 42.667 C 231.333 42.444,231.222 42.333,231.000 42.333 C 230.817 42.333,230.667 42.224,230.667 42.091 C 230.667 41.945,230.430 41.804,230.070 41.737 C 229.742 41.675,229.434 41.522,229.386 41.396 C 229.326 41.241,229.010 41.167,228.418 41.167 C 227.679 41.167,227.525 41.114,227.452 40.833 C 227.317 40.316,220.350 40.316,219.833 40.833 C 219.588 41.078,219.278 41.167,218.661 41.167 C 218.102 41.167,217.793 41.243,217.734 41.397 C 217.686 41.524,217.351 41.675,216.990 41.732 C 216.567 41.800,216.333 41.925,216.333 42.085 C 216.333 42.222,216.184 42.333,216.000 42.333 C 215.817 42.333,215.517 42.483,215.333 42.667 C 215.150 42.850,214.887 43.000,214.750 43.000 C 214.611 43.000,214.500 43.148,214.500 43.333 C 214.500 43.556,214.389 43.667,214.167 43.667 C 213.981 43.667,213.833 43.778,213.833 43.917 C 213.833 44.054,213.714 44.167,213.568 44.167 C 213.422 44.167,213.263 44.317,213.215 44.500 C 213.167 44.683,213.017 44.833,212.882 44.833 C 212.746 44.833,212.596 44.983,212.548 45.167 C 212.500 45.350,212.357 45.500,212.231 45.500 C 212.104 45.500,212.000 45.650,212.000 45.833 C 212.000 46.056,211.889 46.167,211.667 46.167 C 211.444 46.167,211.333 46.278,211.333 46.500 C 211.333 46.722,211.222 46.833,211.000 46.833 C 210.817 46.833,210.667 46.942,210.667 47.075 C 210.667 47.208,210.567 47.377,210.446 47.450 C 210.324 47.523,210.177 47.713,210.119 47.872 C 209.984 48.240,209.500 48.076,209.500 47.662 C 209.500 47.196,209.319 46.833,209.087 46.833 C 208.970 46.833,208.829 46.537,208.769 46.167 C 208.700 45.735,208.575 45.500,208.415 45.500 C 208.278 45.500,208.167 45.351,208.167 45.167 C 208.167 44.944,208.056 44.833,207.833 44.833 C 207.611 44.833,207.500 44.722,207.500 44.500 C 207.500 44.278,207.389 44.167,207.167 44.167 C 206.981 44.167,206.833 44.056,206.833 43.917 C 206.833 43.779,206.721 43.667,206.583 43.667 C 206.444 43.667,206.333 43.519,206.333 43.333 C 206.333 43.118,206.222 43.000,206.019 43.000 C 205.846 43.000,205.667 42.851,205.618 42.667 C 205.552 42.411,205.391 42.333,204.932 42.333 C 204.444 42.333,204.333 42.271,204.333 42.000 C 204.333 41.730,204.222 41.667,203.750 41.667 C 203.343 41.667,203.167 41.591,203.167 41.417 C 203.167 41.225,202.955 41.167,202.261 41.167 C 201.502 41.167,201.339 41.113,201.250 40.833 C 201.148 40.513,200.998 40.500,197.508 40.500 C 194.012 40.500,193.869 40.513,193.785 40.833 C 193.711 41.117,193.558 41.167,192.766 41.167 C 192.048 41.167,191.833 41.224,191.833 41.417 C 191.833 41.591,191.657 41.667,191.250 41.667 C 190.778 41.667,190.667 41.730,190.667 42.000 C 190.667 42.278,190.556 42.333,190.000 42.333 C 189.444 42.333,189.333 42.389,189.333 42.667 C 189.333 42.928,189.222 43.000,188.818 43.000 C 188.442 43.000,188.278 43.091,188.215 43.333 C 188.167 43.518,187.988 43.667,187.814 43.667 C 187.641 43.667,187.500 43.774,187.500 43.905 C 187.500 44.037,187.350 44.192,187.167 44.250 C 186.983 44.308,186.833 44.463,186.833 44.595 C 186.833 44.726,186.714 44.833,186.568 44.833 C 186.422 44.833,186.263 44.983,186.215 45.167 C 186.167 45.350,186.030 45.500,185.911 45.500 C 185.792 45.500,185.657 45.594,185.610 45.708 C 185.564 45.823,185.520 44.938,185.513 43.742 C 185.496 40.974,185.743 41.167,182.217 41.167 L 179.333 41.167 179.333 52.147 C 179.333 62.988,179.329 63.129,179.000 63.215 C 178.700 63.293,178.667 63.442,178.667 64.715 C 178.667 65.988,178.634 66.136,178.333 66.215 C 178.077 66.282,178.000 66.442,178.000 66.908 C 178.000 67.284,177.873 67.650,177.667 67.872 C 177.483 68.069,177.331 68.347,177.328 68.490 C 177.325 68.633,177.213 68.896,177.078 69.074 C 176.943 69.251,176.833 69.533,176.833 69.699 C 176.833 69.889,176.710 70.000,176.500 70.000 C 176.242 70.000,176.167 70.111,176.167 70.489 C 176.167 70.831,176.067 71.009,175.833 71.083 C 175.650 71.142,175.500 71.334,175.500 71.511 C 175.500 71.722,175.385 71.833,175.167 71.833 C 174.944 71.833,174.833 71.944,174.833 72.167 C 174.833 72.352,174.722 72.500,174.583 72.500 C 174.444 72.500,174.333 72.648,174.333 72.833 C 174.333 73.093,174.222 73.167,173.828 73.167 C 173.547 73.167,173.283 73.271,173.233 73.402 C 173.183 73.531,172.960 73.682,172.738 73.738 C 172.515 73.794,172.333 73.951,172.333 74.087 C 172.333 74.222,172.183 74.333,172.000 74.333 C 171.817 74.333,171.517 74.483,171.333 74.667 C 171.144 74.856,170.778 75.000,170.484 75.000 C 170.109 75.000,169.945 75.091,169.882 75.333 C 169.808 75.615,169.654 75.667,168.897 75.667 C 168.211 75.667,168.000 75.725,168.000 75.917 C 168.000 76.135,167.020 76.167,160.184 76.167 C 153.391 76.167,152.356 76.134,152.273 75.917 C 152.204 75.736,151.921 75.667,151.255 75.667 C 150.444 75.667,150.333 75.626,150.333 75.333 C 150.333 75.064,150.222 75.000,149.756 75.000 C 149.349 75.000,149.126 74.902,149.000 74.667 C 148.883 74.448,148.651 74.333,148.327 74.333 C 147.986 74.333,147.833 74.251,147.833 74.068 C 147.833 73.922,147.683 73.763,147.500 73.715 C 147.317 73.667,147.167 73.524,147.167 73.397 C 147.167 73.263,146.994 73.167,146.751 73.167 C 146.517 73.167,146.246 73.022,146.128 72.833 C 146.013 72.650,145.788 72.500,145.627 72.500 C 145.458 72.500,145.333 72.376,145.333 72.207 C 145.333 72.045,145.183 71.820,145.000 71.705 C 144.817 71.591,144.667 71.345,144.667 71.160 C 144.667 70.975,144.562 70.783,144.433 70.733 C 144.305 70.684,144.162 70.499,144.115 70.322 C 144.069 70.145,143.912 70.000,143.766 70.000 C 143.582 70.000,143.500 69.847,143.500 69.506 C 143.500 69.182,143.385 68.950,143.167 68.833 C 142.945 68.715,142.833 68.484,142.833 68.145 C 142.833 67.776,142.742 67.611,142.500 67.548 C 142.246 67.482,142.167 67.321,142.167 66.874 C 142.167 66.551,142.062 66.203,141.934 66.102 C 141.772 65.973,141.678 65.397,141.626 64.209 L 141.551 62.502 158.484 62.459 L 175.417 62.417 175.463 59.694 C 175.507 57.080,175.495 56.967,175.171 56.883 C 174.870 56.804,174.833 56.659,174.833 55.564 C 174.833 54.581,174.783 54.333,174.583 54.333 C 174.398 54.333,174.333 54.139,174.333 53.583 C 174.333 53.056,174.235 52.735,174.000 52.500 C 173.815 52.315,173.667 51.944,173.667 51.667 C 173.667 51.278,173.593 51.167,173.333 51.167 C 173.062 51.167,173.000 51.056,173.000 50.568 C 173.000 50.109,172.922 49.948,172.667 49.882 C 172.451 49.825,172.333 49.654,172.333 49.399 C 172.333 49.181,172.183 48.909,172.000 48.795 C 171.817 48.680,171.667 48.455,171.667 48.293 C 171.667 48.132,171.563 48.000,171.436 48.000 C 171.309 48.000,171.166 47.850,171.118 47.667 C 171.070 47.483,170.920 47.333,170.785 47.333 C 170.650 47.333,170.500 47.183,170.452 47.000 C 170.404 46.817,170.245 46.667,170.099 46.667 C 169.953 46.667,169.833 46.554,169.833 46.417 C 169.833 46.278,169.685 46.167,169.500 46.167 C 169.278 46.167,169.167 46.056,169.167 45.833 C 169.167 45.650,169.063 45.500,168.936 45.500 C 168.809 45.500,168.666 45.350,168.618 45.167 C 168.570 44.983,168.420 44.833,168.285 44.833 C 168.150 44.833,168.000 44.683,167.952 44.500 C 167.904 44.317,167.745 44.167,167.599 44.167 C 167.453 44.167,167.333 44.054,167.333 43.917 C 167.333 43.742,167.157 43.667,166.750 43.667 C 166.338 43.667,166.167 43.592,166.167 43.413 C 166.167 43.273,165.989 43.091,165.773 43.009 C 165.556 42.926,165.333 42.741,165.278 42.596 C 165.221 42.448,164.984 42.333,164.732 42.333 C 164.487 42.333,164.199 42.213,164.092 42.066 C 163.982 41.917,163.553 41.761,163.115 41.711 C 162.607 41.654,162.333 41.543,162.333 41.395 C 162.333 41.222,162.034 41.167,161.103 41.167 C 160.012 41.167,159.862 41.129,159.785 40.833 C 159.701 40.510,159.558 40.500,155.099 40.500 C 150.611 40.500,150.500 40.508,150.500 40.833 M264.727 46.417 C 264.798 46.601,265.088 46.667,265.827 46.667 C 266.650 46.667,266.868 46.727,267.039 47.000 C 267.187 47.237,267.427 47.333,267.873 47.333 C 268.389 47.333,268.500 47.392,268.500 47.667 C 268.500 47.937,268.611 48.000,269.083 48.000 C 269.496 48.000,269.667 48.075,269.667 48.255 C 269.667 48.396,269.798 48.559,269.958 48.618 C 270.119 48.677,270.308 48.821,270.380 48.939 C 270.451 49.057,270.770 49.202,271.088 49.262 C 271.419 49.324,271.667 49.470,271.667 49.602 C 271.667 49.729,271.779 49.833,271.917 49.833 C 272.056 49.833,272.167 49.981,272.167 50.167 C 272.167 50.389,272.278 50.500,272.500 50.500 C 272.722 50.500,272.833 50.611,272.833 50.833 C 272.833 51.056,272.944 51.167,273.167 51.167 C 273.437 51.167,273.500 51.278,273.500 51.750 C 273.500 52.222,273.563 52.333,273.833 52.333 C 274.042 52.333,274.167 52.444,274.167 52.630 C 274.167 52.793,274.270 53.074,274.395 53.255 C 274.521 53.435,274.678 53.832,274.744 54.136 C 274.811 54.440,274.970 54.730,275.099 54.779 C 275.245 54.835,275.333 55.114,275.333 55.518 C 275.333 56.056,275.390 56.167,275.667 56.167 C 275.889 56.167,276.000 56.278,276.000 56.500 C 276.000 56.831,275.889 56.833,262.500 56.833 L 249.000 56.833 249.000 56.186 C 249.000 55.679,249.072 55.520,249.333 55.452 C 249.577 55.388,249.667 55.224,249.667 54.844 C 249.667 54.534,249.768 54.284,249.917 54.227 C 250.071 54.168,250.167 53.914,250.167 53.566 C 250.167 53.111,250.232 53.000,250.500 53.000 C 250.770 53.000,250.833 52.889,250.833 52.417 C 250.833 51.994,250.907 51.833,251.099 51.833 C 251.245 51.833,251.404 51.683,251.452 51.500 C 251.500 51.317,251.650 51.167,251.785 51.167 C 251.920 51.167,252.070 51.017,252.118 50.833 C 252.166 50.650,252.309 50.500,252.436 50.500 C 252.563 50.500,252.667 50.350,252.667 50.167 C 252.667 49.944,252.778 49.833,253.000 49.833 C 253.183 49.833,253.333 49.730,253.333 49.603 C 253.333 49.476,253.483 49.333,253.667 49.285 C 253.850 49.237,254.000 49.087,254.000 48.951 C 254.000 48.800,254.228 48.661,254.583 48.594 C 254.933 48.529,255.167 48.388,255.167 48.242 C 255.167 48.109,255.317 48.000,255.500 48.000 C 255.722 48.000,255.833 47.889,255.833 47.667 C 255.833 47.390,255.944 47.333,256.486 47.333 C 257.301 47.333,257.667 47.199,257.667 46.899 C 257.667 46.726,257.923 46.667,258.667 46.667 C 259.444 46.667,259.667 46.611,259.667 46.417 C 259.667 46.206,260.054 46.167,262.149 46.167 C 264.201 46.167,264.648 46.210,264.727 46.417 M157.430 46.667 C 159.056 46.667,159.167 46.688,159.167 47.000 C 159.167 47.278,159.278 47.333,159.833 47.333 C 160.278 47.333,160.611 47.444,160.833 47.667 C 161.017 47.850,161.305 48.000,161.474 48.000 C 161.643 48.000,161.917 48.150,162.083 48.333 C 162.249 48.517,162.523 48.667,162.692 48.667 C 162.862 48.667,163.000 48.776,163.000 48.909 C 163.000 49.054,163.234 49.195,163.583 49.261 C 163.917 49.324,164.167 49.469,164.167 49.602 C 164.167 49.729,164.317 49.833,164.500 49.833 C 164.722 49.833,164.833 49.944,164.833 50.167 C 164.833 50.389,164.944 50.500,165.167 50.500 C 165.389 50.500,165.500 50.611,165.500 50.833 C 165.500 51.056,165.611 51.167,165.833 51.167 C 166.051 51.167,166.167 51.278,166.167 51.488 C 166.167 51.665,166.279 51.922,166.417 52.060 C 166.554 52.197,166.667 52.434,166.667 52.587 C 166.667 52.740,166.817 52.904,167.000 52.952 C 167.249 53.017,167.333 53.179,167.333 53.592 C 167.333 53.998,167.422 54.172,167.667 54.250 C 167.908 54.327,168.000 54.502,168.000 54.888 C 168.000 55.239,168.113 55.490,168.333 55.628 C 168.546 55.761,168.667 56.017,168.667 56.335 L 168.667 56.833 155.417 56.833 L 142.167 56.833 142.167 56.186 C 142.167 55.679,142.239 55.520,142.500 55.452 C 142.755 55.385,142.833 55.224,142.833 54.766 C 142.833 54.365,142.910 54.167,143.066 54.167 C 143.320 54.167,143.500 53.816,143.500 53.320 C 143.500 53.144,143.604 53.000,143.732 53.000 C 143.987 53.000,144.167 52.650,144.167 52.153 C 144.167 51.977,144.279 51.833,144.417 51.833 C 144.556 51.833,144.667 51.685,144.667 51.500 C 144.667 51.278,144.778 51.167,145.000 51.167 C 145.222 51.167,145.333 51.056,145.333 50.833 C 145.333 50.611,145.444 50.500,145.667 50.500 C 145.889 50.500,146.000 50.389,146.000 50.167 C 146.000 49.944,146.111 49.833,146.333 49.833 C 146.519 49.833,146.667 49.722,146.667 49.583 C 146.667 49.446,146.786 49.333,146.932 49.333 C 147.078 49.333,147.237 49.183,147.285 49.000 C 147.348 48.761,147.512 48.667,147.868 48.667 C 148.224 48.667,148.389 48.572,148.452 48.333 C 148.517 48.083,148.679 48.000,149.103 48.000 C 149.556 48.000,149.667 47.934,149.667 47.667 C 149.667 47.389,149.778 47.333,150.333 47.333 C 150.774 47.333,151.111 47.222,151.328 47.006 C 151.631 46.703,154.562 46.430,155.472 46.620 C 155.594 46.646,156.475 46.667,157.430 46.667 M356.181 63.043 C 356.219 63.067,356.419 63.229,356.625 63.403 C 356.831 63.576,357.000 63.675,357.000 63.621 C 357.000 63.453,356.485 63.000,356.294 63.000 C 356.193 63.000,356.142 63.020,356.181 63.043 M87.208 92.607 C 87.046 92.675,87.000 94.216,87.000 99.514 L 87.000 106.333 88.252 106.333 L 89.504 106.333 89.460 99.458 L 89.417 92.583 88.417 92.551 C 87.867 92.534,87.323 92.559,87.208 92.607 M298.118 92.604 C 298.053 92.669,297.994 93.703,297.987 94.903 C 297.980 96.102,297.931 96.971,297.879 96.833 C 297.709 96.387,297.449 96.338,295.208 96.336 C 293.110 96.333,293.000 96.350,293.000 96.667 C 293.000 96.889,292.889 97.000,292.667 97.000 C 292.483 97.000,292.333 97.104,292.333 97.231 C 292.333 97.357,292.183 97.500,292.000 97.548 C 291.817 97.596,291.667 97.746,291.667 97.882 C 291.667 98.017,291.517 98.167,291.333 98.215 C 291.081 98.281,291.000 98.442,291.000 98.881 C 291.000 99.199,290.887 99.553,290.750 99.667 C 290.559 99.825,290.500 100.260,290.500 101.520 C 290.500 102.873,290.545 103.167,290.750 103.167 C 290.926 103.167,291.000 103.344,291.000 103.766 C 291.000 104.224,291.078 104.385,291.333 104.452 C 291.538 104.505,291.667 104.679,291.667 104.903 C 291.667 105.396,291.973 105.667,292.533 105.667 C 292.889 105.667,293.000 105.746,293.000 106.000 C 293.000 106.323,293.110 106.332,296.752 106.326 L 300.504 106.320 300.460 99.452 L 300.417 92.583 299.326 92.535 C 298.727 92.508,298.183 92.539,298.118 92.604 M312.417 92.868 C 312.366 93.078,312.345 96.175,312.370 99.750 L 312.417 106.250 313.627 106.299 L 314.837 106.348 314.794 99.466 L 314.750 92.583 313.630 92.534 C 312.581 92.488,312.504 92.509,312.417 92.868 M91.333 94.417 L 91.333 95.667 92.583 95.667 L 93.833 95.667 93.833 94.417 L 93.833 93.167 92.583 93.167 L 91.333 93.167 91.333 94.417 M205.736 93.394 C 205.688 93.519,205.671 94.062,205.699 94.602 L 205.750 95.583 207.292 95.631 L 208.833 95.679 208.833 94.423 L 208.833 93.167 207.328 93.167 C 206.212 93.167,205.800 93.225,205.736 93.394 M316.833 94.417 L 316.833 95.667 318.083 95.667 L 319.333 95.667 319.333 94.417 L 319.333 93.167 318.083 93.167 L 316.833 93.167 316.833 94.417 M104.500 95.083 L 104.500 96.333 103.917 96.333 L 103.333 96.333 103.333 97.583 L 103.333 98.833 103.917 98.833 L 104.500 98.833 104.500 102.182 C 104.500 105.391,104.514 105.535,104.833 105.618 C 105.018 105.667,105.167 105.846,105.167 106.019 C 105.167 106.311,105.323 106.333,107.333 106.333 L 109.500 106.333 109.500 105.083 L 109.500 103.833 108.250 103.833 L 107.000 103.833 107.000 101.333 L 107.000 98.833 108.250 98.833 L 109.500 98.833 109.500 97.583 L 109.500 96.333 108.250 96.333 L 107.000 96.333 107.000 95.083 L 107.000 93.833 105.750 93.833 L 104.500 93.833 104.500 95.083 M57.500 97.489 C 57.500 98.498,57.542 98.658,57.833 98.750 C 58.106 98.837,58.167 99.002,58.167 99.660 C 58.167 100.185,58.246 100.495,58.393 100.551 C 58.520 100.600,58.659 100.986,58.709 101.428 C 58.763 101.906,58.904 102.276,59.066 102.367 C 59.238 102.463,59.333 102.742,59.333 103.149 C 59.333 103.570,59.445 103.883,59.667 104.083 C 59.872 104.269,60.000 104.597,60.000 104.935 C 60.000 105.914,60.641 106.358,61.973 106.299 L 63.083 106.250 63.134 105.375 C 63.170 104.746,63.252 104.500,63.425 104.500 C 63.609 104.500,63.667 104.262,63.667 103.500 C 63.667 102.611,63.704 102.500,64.000 102.500 C 64.271 102.500,64.337 102.382,64.353 101.875 C 64.363 101.531,64.406 101.381,64.448 101.542 C 64.490 101.702,64.631 101.833,64.762 101.833 C 64.936 101.833,65.000 102.056,65.000 102.665 C 65.000 103.317,65.072 103.542,65.333 103.705 C 65.592 103.867,65.667 104.094,65.667 104.722 C 65.667 105.391,65.724 105.546,66.000 105.618 C 66.188 105.668,66.333 105.846,66.333 106.027 C 66.333 106.319,66.443 106.344,67.542 106.299 L 68.750 106.250 68.803 105.699 C 68.832 105.396,68.963 105.106,69.095 105.056 C 69.261 104.992,69.333 104.692,69.333 104.066 C 69.333 103.278,69.375 103.167,69.667 103.167 C 69.959 103.167,70.000 103.056,70.000 102.269 C 70.000 101.512,70.052 101.359,70.333 101.285 C 70.612 101.212,70.667 101.058,70.667 100.349 C 70.667 99.734,70.731 99.500,70.899 99.500 C 71.206 99.500,71.333 99.131,71.333 98.236 C 71.333 97.680,71.397 97.500,71.594 97.500 C 71.787 97.500,71.841 97.361,71.802 96.958 L 71.750 96.417 70.292 96.369 L 68.833 96.320 68.833 97.232 C 68.833 97.998,68.780 98.161,68.500 98.250 C 68.221 98.339,68.167 98.502,68.167 99.261 C 68.167 99.950,68.108 100.167,67.920 100.167 C 67.784 100.167,67.626 100.353,67.569 100.580 C 67.371 101.369,66.833 100.808,66.833 99.812 C 66.833 99.109,66.778 98.954,66.500 98.882 C 66.219 98.808,66.167 98.654,66.167 97.897 C 66.167 97.211,66.108 97.000,65.917 97.000 C 65.778 97.000,65.667 96.852,65.667 96.667 C 65.667 96.363,65.556 96.333,64.417 96.333 L 63.167 96.333 63.167 97.231 C 63.167 97.988,63.115 98.141,62.833 98.215 C 62.550 98.289,62.500 98.442,62.500 99.234 C 62.500 100.056,62.460 100.167,62.167 100.167 C 61.897 100.167,61.833 100.278,61.833 100.750 C 61.833 101.222,61.770 101.333,61.500 101.333 C 61.209 101.333,61.167 101.222,61.167 100.449 C 61.167 99.929,61.066 99.430,60.922 99.240 C 60.787 99.062,60.675 98.646,60.672 98.314 C 60.669 97.971,60.523 97.529,60.333 97.288 C 60.150 97.055,60.000 96.745,60.000 96.599 C 60.000 96.380,59.782 96.333,58.750 96.333 L 57.500 96.333 57.500 97.489 M73.882 96.667 C 73.833 96.851,73.654 97.000,73.481 97.000 C 73.308 97.000,73.167 97.112,73.167 97.250 C 73.167 97.388,73.052 97.500,72.913 97.500 C 72.773 97.500,72.590 97.680,72.507 97.899 C 72.423 98.119,72.261 98.330,72.146 98.368 C 72.015 98.412,71.910 98.870,71.865 99.594 C 71.819 100.338,71.711 100.798,71.563 100.883 C 71.256 101.061,71.270 101.653,71.583 101.773 C 71.764 101.842,71.834 102.129,71.836 102.809 C 71.838 103.981,71.972 104.500,72.269 104.500 C 72.396 104.500,72.500 104.620,72.500 104.766 C 72.500 104.912,72.650 105.070,72.833 105.118 C 73.017 105.166,73.167 105.309,73.167 105.436 C 73.167 105.563,73.317 105.667,73.500 105.667 C 73.722 105.667,73.833 105.778,73.833 106.000 C 73.833 106.320,73.944 106.333,76.572 106.333 C 79.164 106.333,79.317 106.316,79.417 106.000 C 79.475 105.817,79.630 105.667,79.761 105.667 C 79.893 105.667,80.000 105.563,80.000 105.436 C 80.000 105.309,80.150 105.166,80.333 105.118 C 80.889 104.973,80.814 103.548,80.239 103.329 C 79.446 103.028,78.314 103.123,78.215 103.500 C 78.149 103.750,77.988 103.833,77.564 103.833 C 77.111 103.833,77.000 103.899,77.000 104.167 C 77.000 104.382,76.889 104.500,76.686 104.500 C 76.512 104.500,76.333 104.351,76.285 104.167 C 76.218 103.911,76.058 103.833,75.599 103.833 C 75.111 103.833,75.000 103.771,75.000 103.500 C 75.000 103.278,74.889 103.167,74.667 103.167 C 74.444 103.167,74.333 103.056,74.333 102.833 C 74.333 102.512,74.444 102.500,77.468 102.500 C 80.900 102.500,81.090 102.453,81.266 101.557 C 81.349 101.131,81.302 100.995,81.018 100.843 C 80.712 100.679,80.667 100.504,80.667 99.479 C 80.667 98.442,80.627 98.292,80.333 98.215 C 80.149 98.167,80.000 97.988,80.000 97.814 C 80.000 97.641,79.887 97.500,79.750 97.500 C 79.612 97.500,79.500 97.388,79.500 97.250 C 79.500 97.112,79.359 97.000,79.186 97.000 C 79.012 97.000,78.833 96.851,78.785 96.667 C 78.703 96.353,78.558 96.333,76.333 96.333 C 74.109 96.333,73.964 96.353,73.882 96.667 M91.409 96.544 C 91.364 96.660,91.348 98.891,91.372 101.502 L 91.417 106.250 92.625 106.299 L 93.833 106.348 93.833 101.341 L 93.833 96.333 92.661 96.333 C 91.871 96.333,91.463 96.402,91.409 96.544 M97.000 96.667 C 97.000 96.903,96.889 97.000,96.617 97.000 C 95.926 97.000,95.833 97.280,95.833 99.367 C 95.833 100.930,95.881 101.333,96.064 101.333 C 96.191 101.333,96.334 101.483,96.382 101.667 C 96.448 101.922,96.609 102.000,97.068 102.000 C 97.489 102.000,97.667 102.074,97.667 102.250 C 97.667 102.441,97.877 102.500,98.564 102.500 C 99.321 102.500,99.475 102.552,99.548 102.833 C 99.596 103.017,99.755 103.167,99.901 103.167 C 100.287 103.167,100.229 103.778,99.833 103.882 C 99.650 103.930,99.500 104.088,99.500 104.234 C 99.500 104.603,99.211 104.567,98.961 104.167 C 98.825 103.948,98.573 103.833,98.229 103.833 C 97.846 103.833,97.682 103.744,97.618 103.500 C 97.546 103.222,97.391 103.167,96.682 103.167 C 95.944 103.167,95.833 103.210,95.833 103.500 C 95.833 103.725,95.722 103.833,95.491 103.833 C 94.826 103.833,95.099 105.569,95.775 105.634 C 96.128 105.669,96.327 105.791,96.384 106.009 C 96.517 106.519,101.818 106.510,101.952 106.000 C 102.000 105.816,102.179 105.667,102.353 105.667 C 102.608 105.667,102.667 105.542,102.667 104.993 C 102.667 104.570,102.797 104.144,103.017 103.846 C 103.396 103.333,103.333 102.667,102.905 102.667 C 102.738 102.667,102.667 102.468,102.667 102.000 C 102.667 101.444,102.611 101.333,102.333 101.333 C 102.111 101.333,102.000 101.222,102.000 101.000 C 102.000 100.737,101.889 100.667,101.477 100.667 C 101.185 100.667,100.865 100.546,100.755 100.395 C 100.633 100.229,100.221 100.091,99.695 100.040 C 99.116 99.985,98.833 99.883,98.833 99.729 C 98.833 99.603,98.721 99.500,98.583 99.500 C 98.444 99.500,98.333 99.352,98.333 99.167 C 98.333 98.868,98.444 98.833,99.415 98.833 C 100.317 98.833,100.532 98.889,100.705 99.167 C 101.331 100.168,102.667 99.317,102.667 97.917 L 102.667 97.000 102.000 97.000 C 101.444 97.000,101.333 96.944,101.333 96.667 C 101.333 96.350,101.222 96.333,99.167 96.333 C 97.111 96.333,97.000 96.350,97.000 96.667 M112.295 96.667 C 112.180 96.850,111.955 97.000,111.793 97.000 C 111.632 97.000,111.500 97.104,111.500 97.231 C 111.500 97.357,111.350 97.500,111.167 97.548 C 110.983 97.596,110.833 97.755,110.833 97.901 C 110.833 98.047,110.683 98.317,110.500 98.500 C 110.014 98.986,109.987 104.019,110.469 104.366 C 110.636 104.485,110.821 104.715,110.881 104.875 C 110.941 105.035,111.104 105.167,111.245 105.167 C 111.385 105.167,111.500 105.279,111.500 105.417 C 111.500 105.556,111.648 105.667,111.833 105.667 C 112.056 105.667,112.167 105.778,112.167 106.000 C 112.167 106.320,112.278 106.333,114.917 106.333 C 117.556 106.333,117.667 106.320,117.667 106.000 C 117.667 105.778,117.778 105.667,118.000 105.667 C 118.185 105.667,118.333 105.556,118.333 105.417 C 118.333 105.278,118.481 105.167,118.667 105.167 C 119.110 105.167,119.174 103.436,118.736 103.268 C 118.035 102.999,116.500 103.158,116.500 103.500 C 116.500 103.769,116.389 103.833,115.928 103.833 C 115.502 103.833,115.329 103.919,115.250 104.167 C 115.192 104.350,115.042 104.500,114.917 104.500 C 114.792 104.500,114.642 104.350,114.583 104.167 C 114.505 103.919,114.331 103.833,113.905 103.833 C 113.471 103.833,113.333 103.763,113.333 103.540 C 113.333 103.379,113.183 103.153,113.000 103.039 C 112.259 102.576,112.692 102.500,116.066 102.500 C 119.842 102.500,119.667 102.557,119.667 101.333 C 119.667 100.532,119.531 100.167,119.232 100.167 C 119.061 100.167,119.000 99.920,119.000 99.234 C 119.000 98.442,118.950 98.289,118.667 98.215 C 118.482 98.167,118.333 97.988,118.333 97.814 C 118.333 97.611,118.215 97.500,118.000 97.500 C 117.815 97.500,117.667 97.389,117.667 97.250 C 117.667 97.112,117.559 97.000,117.428 97.000 C 117.297 97.000,117.142 96.850,117.083 96.667 C 116.984 96.355,116.831 96.333,114.740 96.333 C 112.683 96.333,112.486 96.360,112.295 96.667 M120.333 101.343 L 120.333 106.333 121.583 106.333 L 122.833 106.333 122.833 103.167 C 122.833 100.463,122.870 100.000,123.083 100.000 C 123.221 100.000,123.333 99.893,123.333 99.761 C 123.333 99.630,123.483 99.475,123.667 99.417 C 123.850 99.358,124.000 99.203,124.000 99.072 C 124.000 98.894,124.232 98.833,124.917 98.833 C 125.644 98.833,125.833 98.888,125.833 99.099 C 125.833 99.245,125.983 99.404,126.167 99.452 C 126.486 99.535,126.500 99.679,126.500 102.936 L 126.500 106.333 127.750 106.333 L 129.000 106.333 129.000 102.264 C 129.000 98.073,128.962 97.667,128.566 97.667 C 128.438 97.667,128.333 97.517,128.333 97.333 C 128.333 97.118,128.222 97.000,128.019 97.000 C 127.846 97.000,127.667 96.851,127.619 96.667 C 127.535 96.347,127.393 96.335,123.932 96.344 L 120.333 96.353 120.333 101.343 M144.944 96.444 C 144.736 96.653,144.833 97.344,145.083 97.440 C 145.262 97.508,145.333 97.788,145.333 98.423 C 145.333 99.164,145.388 99.328,145.667 99.417 C 145.942 99.504,146.000 99.669,146.000 100.360 C 146.000 101.058,146.056 101.212,146.333 101.285 C 146.615 101.359,146.667 101.512,146.667 102.269 C 146.667 103.056,146.708 103.167,147.000 103.167 C 147.293 103.167,147.333 103.278,147.333 104.083 C 147.333 104.787,147.391 105.000,147.583 105.000 C 147.764 105.000,147.833 105.185,147.833 105.667 L 147.833 106.333 149.083 106.333 C 150.196 106.333,150.333 106.299,150.333 106.019 C 150.333 105.846,150.482 105.667,150.667 105.618 C 150.944 105.546,151.000 105.391,151.000 104.702 C 151.000 104.012,151.056 103.857,151.333 103.785 C 151.606 103.714,151.667 103.558,151.667 102.932 C 151.667 102.389,151.763 102.070,152.000 101.833 L 152.333 101.500 152.333 102.000 C 152.333 102.333,152.417 102.500,152.583 102.500 C 152.761 102.500,152.834 102.682,152.836 103.125 C 152.839 103.987,152.997 104.500,153.261 104.500 C 153.411 104.500,153.499 104.783,153.533 105.375 L 153.583 106.250 154.785 106.299 C 156.213 106.357,156.667 106.064,156.667 105.083 C 156.667 104.722,156.794 104.373,157.000 104.167 C 157.211 103.955,157.333 103.611,157.333 103.227 C 157.333 102.868,157.440 102.542,157.594 102.429 C 157.738 102.324,157.899 101.903,157.952 101.494 C 158.005 101.085,158.150 100.690,158.274 100.617 C 158.415 100.534,158.500 100.178,158.500 99.678 C 158.500 99.012,158.558 98.857,158.833 98.785 C 159.127 98.708,159.167 98.558,159.167 97.516 L 159.167 96.333 157.917 96.333 L 156.667 96.333 156.667 96.905 C 156.667 97.331,156.581 97.505,156.333 97.583 C 156.054 97.672,156.000 97.836,156.000 98.595 C 156.000 99.288,155.942 99.500,155.750 99.500 C 155.558 99.500,155.500 99.713,155.500 100.417 C 155.500 101.222,155.460 101.333,155.167 101.333 C 154.899 101.333,154.833 101.222,154.833 100.769 C 154.833 100.346,154.750 100.184,154.500 100.118 C 154.221 100.045,154.167 99.891,154.167 99.167 C 154.167 98.442,154.113 98.288,153.833 98.215 C 153.552 98.141,153.500 97.988,153.500 97.231 L 153.500 96.333 152.250 96.333 C 151.103 96.333,151.000 96.361,151.000 96.674 C 151.000 96.861,150.850 97.175,150.667 97.372 C 150.442 97.613,150.333 97.960,150.333 98.436 C 150.333 98.842,150.227 99.249,150.083 99.393 C 149.946 99.530,149.833 99.933,149.833 100.288 C 149.833 100.891,149.608 101.333,149.300 101.333 C 149.227 101.333,149.167 101.101,149.167 100.818 C 149.167 100.442,149.076 100.278,148.833 100.215 C 148.551 100.141,148.500 99.988,148.500 99.215 C 148.500 98.442,148.449 98.289,148.167 98.215 C 147.885 98.141,147.833 97.988,147.833 97.231 L 147.833 96.333 146.444 96.333 C 145.681 96.333,145.006 96.383,144.944 96.444 M161.667 96.656 C 161.667 96.898,161.532 96.992,161.125 97.031 C 160.707 97.071,160.571 97.170,160.529 97.465 C 160.499 97.674,160.331 97.936,160.154 98.046 C 159.978 98.157,159.833 98.341,159.833 98.457 C 159.833 98.572,159.683 98.817,159.500 99.000 C 159.201 99.299,159.167 99.556,159.167 101.516 C 159.167 103.558,159.188 103.703,159.500 103.785 C 159.750 103.851,159.833 104.012,159.833 104.436 C 159.833 104.889,159.899 105.000,160.167 105.000 C 160.389 105.000,160.500 105.111,160.500 105.333 C 160.500 105.577,160.611 105.667,160.915 105.667 C 161.150 105.667,161.421 105.812,161.539 106.000 C 161.852 106.502,166.474 106.513,166.787 106.012 C 166.898 105.835,167.197 105.666,167.451 105.637 C 167.751 105.602,167.935 105.470,167.975 105.262 C 168.008 105.085,168.144 104.832,168.276 104.700 C 168.485 104.492,168.485 104.425,168.275 104.189 C 168.143 104.039,168.006 103.767,167.972 103.583 C 167.884 103.121,165.924 103.089,165.592 103.544 C 165.475 103.703,165.186 103.833,164.948 103.833 C 164.711 103.833,164.449 103.954,164.366 104.102 C 164.228 104.348,164.208 104.348,164.113 104.102 C 164.057 103.954,163.824 103.833,163.596 103.833 C 163.201 103.833,162.333 103.149,162.333 102.837 C 162.333 102.756,162.165 102.657,161.958 102.618 C 161.752 102.578,163.177 102.535,165.125 102.523 L 168.667 102.500 168.667 101.188 C 168.667 99.572,168.529 98.833,168.229 98.833 C 168.084 98.833,168.000 98.644,168.000 98.318 C 168.000 97.942,167.909 97.778,167.667 97.715 C 167.482 97.667,167.333 97.488,167.333 97.314 C 167.333 97.068,167.211 97.000,166.769 97.000 C 166.346 97.000,166.184 96.917,166.118 96.667 C 165.985 96.159,161.667 96.148,161.667 96.656 M176.833 96.667 C 176.833 96.944,176.722 97.000,176.167 97.000 C 175.692 97.000,175.500 97.070,175.500 97.244 C 175.500 97.378,175.350 97.569,175.167 97.667 C 174.948 97.783,174.833 98.016,174.833 98.339 C 174.833 98.667,174.749 98.833,174.583 98.833 C 174.372 98.833,174.333 99.220,174.333 101.316 C 174.333 103.368,174.377 103.814,174.583 103.894 C 174.728 103.949,174.833 104.198,174.833 104.484 C 174.833 104.831,174.932 105.009,175.167 105.083 C 175.350 105.142,175.500 105.297,175.500 105.428 C 175.500 105.559,175.641 105.667,175.814 105.667 C 175.988 105.667,176.167 105.816,176.215 106.000 C 176.298 106.316,176.442 106.333,179.068 106.333 C 181.722 106.333,181.833 106.320,181.833 106.000 C 181.833 105.782,181.944 105.667,182.155 105.667 C 182.765 105.667,183.019 105.203,182.966 104.189 L 182.917 103.250 181.778 103.200 C 180.749 103.156,180.631 103.184,180.550 103.492 C 180.483 103.751,180.325 103.833,179.897 103.833 C 179.429 103.833,179.333 103.895,179.333 104.196 L 179.333 104.558 178.948 104.196 C 178.735 103.996,178.436 103.833,178.283 103.833 C 177.900 103.833,177.333 103.321,177.333 102.975 C 177.333 102.819,177.202 102.657,177.042 102.615 C 176.881 102.573,178.306 102.530,180.208 102.519 L 183.667 102.500 183.667 101.068 C 183.667 99.776,183.634 99.627,183.333 99.548 C 183.072 99.480,183.000 99.321,183.000 98.814 C 183.000 98.380,182.925 98.167,182.774 98.167 C 182.650 98.167,182.479 97.923,182.394 97.625 C 182.266 97.176,182.147 97.074,181.703 97.031 C 181.302 96.992,181.167 96.898,181.167 96.656 C 181.167 96.353,181.032 96.333,179.000 96.333 C 176.944 96.333,176.833 96.350,176.833 96.667 M184.333 101.333 L 184.333 106.333 185.583 106.333 L 186.833 106.333 186.833 103.500 C 186.833 101.189,186.876 100.667,187.066 100.667 C 187.317 100.667,187.500 100.318,187.500 99.838 C 187.500 99.672,187.612 99.492,187.750 99.440 C 187.887 99.387,188.000 99.229,188.000 99.089 C 188.000 98.888,188.213 98.833,189.000 98.833 C 189.804 98.833,190.000 98.885,190.000 99.099 C 190.000 99.245,190.150 99.404,190.333 99.452 C 190.653 99.535,190.667 99.679,190.667 102.936 L 190.667 106.333 191.925 106.333 L 193.183 106.333 193.133 102.071 C 193.088 98.217,193.055 97.794,192.792 97.646 C 192.631 97.557,192.500 97.375,192.500 97.242 C 192.500 97.109,192.359 97.000,192.186 97.000 C 192.012 97.000,191.833 96.851,191.785 96.667 C 191.704 96.356,191.558 96.333,189.599 96.333 C 187.722 96.333,187.465 96.369,187.167 96.667 L 186.833 97.000 186.833 96.667 C 186.833 96.363,186.722 96.333,185.583 96.333 L 184.333 96.333 184.333 101.333 M196.833 96.667 C 196.833 96.937,196.722 97.000,196.250 97.000 C 195.855 97.000,195.667 97.077,195.667 97.239 C 195.667 97.370,195.517 97.525,195.333 97.583 C 195.085 97.662,195.000 97.836,195.000 98.261 C 195.000 98.722,194.935 98.833,194.667 98.833 C 194.350 98.833,194.333 98.944,194.333 101.000 C 194.333 103.056,194.350 103.167,194.667 103.167 C 194.935 103.167,195.000 103.278,195.000 103.739 C 195.000 104.164,195.085 104.338,195.333 104.417 C 195.517 104.475,195.667 104.622,195.667 104.743 C 195.667 104.864,195.929 105.012,196.250 105.072 C 196.599 105.138,196.833 105.279,196.833 105.424 C 196.833 105.826,201.113 105.778,201.218 105.375 C 201.291 105.097,201.296 105.097,201.314 105.375 C 201.338 105.744,200.760 106.333,200.373 106.333 C 200.212 106.333,199.987 106.483,199.872 106.667 C 199.742 106.874,199.483 107.000,199.185 107.000 C 198.846 107.000,198.680 106.902,198.618 106.667 C 198.546 106.388,198.391 106.333,197.682 106.333 C 196.937 106.333,196.833 106.291,196.833 105.991 C 196.833 105.683,196.746 105.654,195.958 105.700 L 195.083 105.750 195.034 106.958 C 194.989 108.080,195.010 108.167,195.326 108.167 C 195.513 108.167,195.667 108.271,195.667 108.399 C 195.667 108.989,202.298 109.088,202.452 108.500 C 202.500 108.316,202.679 108.167,202.853 108.167 C 203.025 108.167,203.167 108.072,203.167 107.957 C 203.167 107.841,203.317 107.653,203.500 107.539 C 203.713 107.406,203.833 107.150,203.833 106.832 C 203.833 106.500,203.917 106.333,204.083 106.333 C 204.300 106.333,204.333 105.667,204.333 101.333 L 204.333 96.333 203.083 96.333 C 201.944 96.333,201.833 96.363,201.833 96.667 C 201.833 96.850,201.730 97.000,201.603 97.000 C 201.476 97.000,201.333 96.850,201.285 96.667 C 201.203 96.355,201.058 96.333,199.016 96.333 C 196.944 96.333,196.833 96.350,196.833 96.667 M206.333 101.333 L 206.333 106.348 207.542 106.299 L 208.750 106.250 208.750 101.333 L 208.750 96.417 207.542 96.368 L 206.333 96.319 206.333 101.333 M210.101 96.597 C 210.046 96.742,210.000 98.873,210.000 101.333 C 210.000 106.717,209.896 106.333,211.351 106.333 L 212.500 106.333 212.500 103.833 C 212.500 101.556,212.530 101.304,212.833 101.000 C 213.035 100.798,213.167 100.444,213.167 100.103 C 213.167 99.679,213.250 99.517,213.500 99.452 C 213.683 99.404,213.833 99.245,213.833 99.099 C 213.833 98.888,214.022 98.833,214.750 98.833 C 215.478 98.833,215.667 98.888,215.667 99.099 C 215.667 99.245,215.815 99.403,215.997 99.451 C 216.310 99.533,216.329 99.708,216.372 102.894 L 216.417 106.250 217.625 106.299 L 218.833 106.348 218.833 102.019 C 218.833 97.836,218.822 97.686,218.500 97.583 C 218.317 97.525,218.167 97.370,218.167 97.239 C 218.167 97.107,218.017 97.000,217.833 97.000 C 217.611 97.000,217.500 96.889,217.500 96.667 C 217.500 96.351,217.389 96.333,215.373 96.333 C 213.427 96.333,213.229 96.362,213.039 96.667 C 212.924 96.850,212.756 97.000,212.665 97.000 C 212.574 97.000,212.500 96.850,212.500 96.667 C 212.500 96.218,210.271 96.153,210.101 96.597 M222.667 96.667 C 222.667 96.937,222.556 97.000,222.083 97.000 C 221.762 97.000,221.500 97.064,221.500 97.142 C 221.500 97.221,221.313 97.487,221.083 97.734 C 220.854 97.982,220.667 98.322,220.667 98.491 C 220.667 98.660,220.554 98.841,220.417 98.894 C 220.210 98.973,220.167 99.412,220.167 101.411 C 220.167 103.453,220.206 103.833,220.417 103.833 C 220.554 103.833,220.667 103.977,220.667 104.153 C 220.667 104.650,220.846 105.000,221.101 105.000 C 221.229 105.000,221.333 105.150,221.333 105.333 C 221.333 105.556,221.444 105.667,221.667 105.667 C 221.850 105.667,222.150 105.817,222.333 106.000 C 222.637 106.304,222.889 106.333,225.167 106.333 C 227.556 106.333,227.667 106.319,227.667 106.000 C 227.667 105.730,227.778 105.667,228.250 105.667 L 228.833 105.667 228.833 104.417 L 228.833 103.167 227.832 103.167 C 227.036 103.167,226.771 103.235,226.545 103.500 C 226.385 103.687,226.053 103.833,225.791 103.833 C 225.462 103.833,225.283 103.941,225.188 104.196 L 225.054 104.559 224.959 104.196 C 224.888 103.922,224.738 103.833,224.349 103.833 C 224.013 103.833,223.833 103.750,223.833 103.595 C 223.833 103.463,223.683 103.308,223.500 103.250 C 223.317 103.192,223.167 103.042,223.167 102.918 C 223.167 102.793,223.035 102.657,222.875 102.615 C 222.715 102.573,224.140 102.530,226.042 102.519 L 229.500 102.500 229.500 100.835 C 229.500 99.350,229.464 99.147,229.167 98.961 C 228.966 98.836,228.833 98.573,228.833 98.299 C 228.833 98.016,228.708 97.778,228.500 97.667 C 228.317 97.569,228.167 97.378,228.167 97.244 C 228.167 97.076,227.985 97.000,227.583 97.000 C 227.111 97.000,227.000 96.937,227.000 96.667 C 227.000 96.350,226.889 96.333,224.833 96.333 C 222.778 96.333,222.667 96.350,222.667 96.667 M232.539 96.667 C 232.424 96.850,232.185 97.000,232.006 97.000 C 231.508 97.000,230.833 97.772,230.833 98.341 C 230.833 98.722,230.758 98.833,230.500 98.833 C 230.182 98.833,230.167 98.944,230.167 101.320 C 230.167 103.936,230.224 104.333,230.601 104.333 C 230.729 104.333,230.835 104.465,230.836 104.625 C 230.839 104.933,231.515 105.667,231.796 105.667 C 231.887 105.667,232.000 105.817,232.048 106.000 C 232.131 106.316,232.276 106.333,234.901 106.333 C 237.556 106.333,237.667 106.320,237.667 106.000 C 237.667 105.817,237.775 105.667,237.908 105.667 C 238.700 105.667,239.270 104.316,238.827 103.489 C 238.564 102.997,236.500 103.007,236.500 103.500 C 236.500 103.771,236.389 103.833,235.901 103.833 C 235.442 103.833,235.282 103.911,235.215 104.167 C 235.105 104.586,234.915 104.590,234.629 104.181 C 234.506 104.006,234.186 103.837,233.916 103.806 C 233.529 103.762,233.396 103.639,233.275 103.216 C 233.191 102.923,233.002 102.650,232.853 102.611 C 232.705 102.571,234.140 102.530,236.042 102.519 L 239.500 102.500 239.500 101.078 C 239.500 99.968,239.445 99.635,239.250 99.560 C 239.094 99.500,239.000 99.246,239.000 98.883 C 239.000 98.442,238.920 98.281,238.667 98.215 C 238.483 98.167,238.333 97.992,238.333 97.826 C 238.333 97.401,237.883 97.000,237.405 97.000 C 237.111 97.000,237.000 96.908,237.000 96.667 C 237.000 96.351,236.889 96.333,234.873 96.333 C 232.927 96.333,232.729 96.362,232.539 96.667 M240.278 96.444 C 240.217 96.506,240.167 98.756,240.167 101.444 L 240.167 106.333 241.417 106.333 L 242.667 106.333 242.667 104.173 C 242.667 102.182,242.693 101.998,243.000 101.833 C 243.265 101.692,243.333 101.484,243.333 100.827 C 243.333 100.111,243.378 100.000,243.667 100.000 C 243.850 100.000,244.000 99.891,244.000 99.758 C 244.000 99.612,244.234 99.471,244.583 99.406 C 244.917 99.343,245.167 99.197,245.167 99.065 C 245.167 98.906,245.376 98.833,245.833 98.833 L 246.500 98.833 246.500 97.583 L 246.500 96.333 244.984 96.333 C 243.609 96.333,243.461 96.364,243.382 96.667 C 243.333 96.851,243.154 97.000,242.981 97.000 C 242.778 97.000,242.667 96.882,242.667 96.667 C 242.667 96.330,240.586 96.137,240.278 96.444 M261.531 97.433 C 261.583 98.244,261.676 98.575,261.884 98.692 C 262.075 98.799,262.167 99.062,262.167 99.508 C 262.167 99.944,262.279 100.279,262.500 100.500 C 262.700 100.700,262.833 101.056,262.833 101.391 C 262.833 101.737,262.960 102.063,263.167 102.250 C 263.387 102.449,263.500 102.763,263.500 103.175 C 263.500 103.575,263.589 103.832,263.750 103.894 C 263.926 103.961,264.000 104.236,264.000 104.828 C 264.000 105.556,264.044 105.667,264.333 105.667 C 264.556 105.667,264.667 105.778,264.667 106.000 C 264.667 106.304,264.778 106.333,265.917 106.333 L 267.167 106.333 267.167 105.436 C 267.167 104.679,267.219 104.525,267.500 104.452 C 267.783 104.378,267.833 104.224,267.833 103.432 C 267.833 102.611,267.873 102.500,268.167 102.500 C 268.410 102.500,268.500 102.389,268.500 102.089 C 268.500 101.306,268.951 101.815,269.058 102.718 C 269.115 103.194,269.262 103.658,269.387 103.750 C 269.511 103.842,269.657 104.252,269.712 104.661 C 269.767 105.070,269.929 105.491,270.072 105.596 C 270.216 105.701,270.333 105.910,270.333 106.060 C 270.333 106.289,270.536 106.333,271.583 106.333 L 272.833 106.333 272.833 105.761 C 272.833 105.336,272.919 105.162,273.167 105.083 C 273.446 104.995,273.500 104.831,273.500 104.072 C 273.500 103.409,273.562 103.167,273.732 103.167 C 274.032 103.167,274.167 102.801,274.167 101.986 C 274.167 101.517,274.237 101.333,274.417 101.333 C 274.608 101.333,274.667 101.123,274.667 100.436 C 274.667 99.679,274.719 99.525,275.000 99.452 C 275.282 99.378,275.333 99.224,275.333 98.452 C 275.333 97.668,275.382 97.526,275.679 97.449 C 275.944 97.379,276.012 97.249,275.971 96.887 L 275.917 96.417 274.417 96.417 L 272.917 96.417 272.868 97.250 C 272.837 97.772,272.719 98.159,272.552 98.286 C 272.395 98.405,272.252 98.832,272.205 99.324 C 272.161 99.784,272.022 100.246,271.896 100.351 C 271.770 100.455,271.661 100.738,271.654 100.979 C 271.646 101.241,271.602 101.316,271.546 101.167 C 271.494 101.029,271.350 100.857,271.226 100.783 C 271.096 100.707,271.000 100.368,271.000 99.992 C 271.000 99.556,270.887 99.221,270.667 99.000 C 270.430 98.763,270.333 98.444,270.333 97.901 C 270.333 97.276,270.272 97.120,270.000 97.048 C 269.812 96.999,269.667 96.821,269.667 96.640 C 269.667 96.348,269.557 96.323,268.458 96.368 L 267.250 96.417 267.200 97.292 C 267.166 97.884,267.078 98.167,266.927 98.167 C 266.664 98.167,266.505 98.680,266.502 99.542 C 266.501 99.974,266.426 100.167,266.260 100.167 C 266.097 100.167,266.003 100.391,265.968 100.865 C 265.895 101.856,265.333 101.329,265.333 100.270 C 265.333 99.793,265.225 99.446,265.000 99.205 C 264.768 98.956,264.667 98.617,264.667 98.092 C 264.667 97.517,264.587 97.286,264.333 97.128 C 264.150 97.013,264.000 96.788,264.000 96.627 C 264.000 96.372,263.831 96.333,262.731 96.333 L 261.461 96.333 261.531 97.433 M278.048 96.667 C 278.000 96.850,277.839 97.001,277.689 97.003 C 277.391 97.006,276.667 97.692,276.667 97.971 C 276.667 98.066,276.517 98.192,276.333 98.250 C 276.016 98.351,276.000 98.502,276.000 101.360 C 276.000 104.224,276.016 104.369,276.333 104.452 C 276.518 104.500,276.667 104.679,276.667 104.853 C 276.667 105.025,276.771 105.167,276.899 105.167 C 277.027 105.167,277.174 105.279,277.227 105.417 C 277.280 105.554,277.429 105.667,277.559 105.667 C 277.688 105.667,277.834 105.817,277.882 106.000 C 277.964 106.316,278.109 106.333,280.734 106.333 C 283.389 106.333,283.500 106.320,283.500 106.000 C 283.500 105.778,283.611 105.667,283.833 105.667 C 284.017 105.667,284.167 105.563,284.167 105.436 C 284.167 105.309,284.327 105.164,284.523 105.112 C 284.874 105.021,284.930 103.708,284.596 103.374 C 284.261 103.039,282.333 103.130,282.333 103.481 C 282.333 103.781,282.234 103.833,281.667 103.833 C 281.111 103.833,281.000 103.889,281.000 104.167 C 281.000 104.389,280.889 104.500,280.667 104.500 C 280.444 104.500,280.333 104.389,280.333 104.167 C 280.333 103.899,280.222 103.833,279.769 103.833 C 279.346 103.833,279.184 103.750,279.118 103.500 C 279.070 103.317,278.912 103.167,278.766 103.167 C 278.612 103.167,278.500 103.028,278.500 102.837 C 278.500 102.520,278.638 102.505,281.875 102.462 L 285.250 102.417 285.303 101.679 C 285.341 101.143,285.284 100.902,285.094 100.796 C 284.904 100.689,284.833 100.386,284.833 99.672 C 284.833 98.561,284.725 98.167,284.418 98.167 C 284.301 98.167,284.166 98.017,284.118 97.833 C 284.070 97.650,283.912 97.500,283.766 97.500 C 283.620 97.500,283.500 97.388,283.500 97.250 C 283.500 97.111,283.352 97.000,283.167 97.000 C 282.944 97.000,282.833 96.889,282.833 96.667 C 282.833 96.349,282.722 96.333,280.484 96.333 C 278.276 96.333,278.130 96.353,278.048 96.667 M304.250 96.667 C 304.175 96.903,303.998 97.000,303.640 97.000 C 303.276 97.000,303.111 97.093,303.048 97.333 C 303.000 97.517,302.861 97.667,302.738 97.667 C 302.615 97.667,302.466 97.928,302.406 98.250 C 302.345 98.571,302.201 98.833,302.084 98.833 C 301.762 98.833,301.671 99.405,301.669 101.445 C 301.667 103.441,301.737 103.833,302.101 103.833 C 302.255 103.833,302.333 104.029,302.333 104.417 C 302.333 104.839,302.407 105.000,302.599 105.000 C 302.745 105.000,302.904 105.150,302.952 105.333 C 303.000 105.517,303.143 105.667,303.269 105.667 C 303.396 105.667,303.650 105.817,303.833 106.000 C 304.338 106.505,309.151 106.513,309.283 106.009 C 309.340 105.791,309.539 105.669,309.892 105.634 L 310.417 105.583 310.466 104.375 L 310.515 103.167 309.507 103.167 C 308.722 103.167,308.426 103.240,308.167 103.500 C 307.983 103.683,307.643 103.833,307.411 103.833 C 307.129 103.833,306.939 103.958,306.839 104.208 C 306.735 104.467,306.685 104.498,306.677 104.309 C 306.667 104.036,306.341 103.833,305.912 103.833 C 305.635 103.833,304.833 103.115,304.833 102.867 C 304.833 102.770,304.665 102.657,304.458 102.618 C 304.252 102.578,305.677 102.535,307.625 102.523 L 311.167 102.500 311.167 101.000 C 311.167 99.722,311.117 99.451,310.833 99.167 C 310.650 98.983,310.500 98.689,310.500 98.514 C 310.500 98.017,310.320 97.667,310.066 97.667 C 309.938 97.667,309.833 97.517,309.833 97.333 C 309.833 97.063,309.722 97.000,309.250 97.000 C 308.778 97.000,308.667 96.937,308.667 96.667 C 308.667 96.351,308.556 96.333,306.511 96.333 C 304.502 96.333,304.349 96.356,304.250 96.667 M316.833 101.326 L 316.833 106.333 318.086 106.333 L 319.338 106.333 319.294 101.375 L 319.250 96.417 318.042 96.368 L 316.833 96.319 316.833 101.326 M320.000 97.250 C 320.000 97.954,320.058 98.167,320.250 98.167 C 320.403 98.167,320.500 98.323,320.500 98.570 C 320.500 99.145,320.666 99.500,320.934 99.500 C 321.076 99.500,321.168 99.679,321.169 99.958 C 321.172 100.672,321.350 101.167,321.603 101.167 C 321.761 101.167,321.833 101.377,321.833 101.833 C 321.833 102.389,321.889 102.500,322.167 102.500 C 322.444 102.500,322.500 102.611,322.500 103.167 C 322.500 103.620,322.573 103.833,322.729 103.833 C 322.877 103.833,322.996 104.127,323.069 104.674 C 323.135 105.175,323.279 105.553,323.423 105.609 C 323.557 105.660,323.667 105.844,323.667 106.018 C 323.667 106.299,323.801 106.333,324.917 106.333 C 326.030 106.333,326.167 106.299,326.167 106.019 C 326.167 105.846,326.316 105.667,326.500 105.618 C 326.765 105.549,326.833 105.391,326.833 104.850 C 326.833 104.350,326.922 104.114,327.167 103.961 C 327.401 103.815,327.500 103.573,327.500 103.146 C 327.500 102.679,327.577 102.519,327.833 102.452 C 328.073 102.389,328.167 102.224,328.167 101.867 C 328.167 101.578,328.272 101.329,328.417 101.273 C 328.592 101.206,328.667 100.932,328.667 100.358 C 328.667 99.679,328.724 99.524,329.000 99.452 C 329.253 99.386,329.333 99.224,329.333 98.785 C 329.333 98.346,329.414 98.184,329.667 98.118 C 329.945 98.046,330.000 97.891,330.000 97.182 L 330.000 96.333 328.750 96.333 C 327.611 96.333,327.500 96.363,327.500 96.667 C 327.500 96.889,327.389 97.000,327.167 97.000 C 326.907 97.000,326.833 97.111,326.833 97.500 C 326.833 97.778,326.685 98.148,326.500 98.333 C 326.277 98.556,326.167 98.889,326.167 99.339 C 326.167 99.782,326.082 100.043,325.917 100.106 C 325.765 100.165,325.667 100.417,325.667 100.748 C 325.667 101.334,325.321 101.553,324.667 101.382 C 324.406 101.313,324.333 101.154,324.333 100.647 C 324.333 100.222,324.219 99.886,324.000 99.667 C 323.794 99.460,323.667 99.111,323.667 98.750 C 323.667 98.278,323.603 98.167,323.333 98.167 C 323.052 98.167,323.000 98.056,323.000 97.450 C 323.000 96.455,322.814 96.333,321.300 96.333 L 320.000 96.333 320.000 97.250 M332.000 96.667 C 331.902 96.850,331.753 97.000,331.669 97.000 C 331.450 97.000,330.667 97.755,330.667 97.966 C 330.667 98.064,330.517 98.192,330.333 98.250 C 330.042 98.342,330.000 98.502,330.000 99.516 C 330.000 100.366,329.937 100.701,329.763 100.768 C 329.276 100.955,329.280 101.833,329.768 101.833 C 329.946 101.833,330.000 102.128,330.000 103.099 C 330.000 104.224,330.037 104.374,330.333 104.452 C 330.518 104.500,330.667 104.679,330.667 104.853 C 330.667 105.025,330.771 105.167,330.899 105.167 C 331.027 105.167,331.174 105.279,331.227 105.417 C 331.280 105.554,331.429 105.667,331.559 105.667 C 331.688 105.667,331.834 105.817,331.882 106.000 C 331.964 106.316,332.109 106.333,334.734 106.333 C 337.389 106.333,337.500 106.320,337.500 106.000 C 337.500 105.778,337.611 105.667,337.833 105.667 C 338.017 105.667,338.167 105.563,338.167 105.436 C 338.167 105.309,338.327 105.164,338.523 105.112 C 338.874 105.021,338.930 103.708,338.596 103.374 C 338.261 103.039,336.333 103.130,336.333 103.481 C 336.333 103.781,336.234 103.833,335.667 103.833 C 335.111 103.833,335.000 103.889,335.000 104.167 C 335.000 104.389,334.889 104.500,334.667 104.500 C 334.444 104.500,334.333 104.389,334.333 104.167 C 334.333 103.899,334.222 103.833,333.769 103.833 C 333.346 103.833,333.184 103.750,333.118 103.500 C 333.070 103.317,332.912 103.167,332.766 103.167 C 332.611 103.167,332.500 103.027,332.500 102.833 C 332.500 102.512,332.611 102.500,335.667 102.500 C 338.663 102.500,338.833 102.483,338.833 102.184 C 338.833 102.011,338.946 101.826,339.083 101.773 C 339.221 101.720,339.333 101.522,339.333 101.333 C 339.333 101.144,339.221 100.946,339.083 100.894 C 338.898 100.822,338.833 100.527,338.833 99.746 C 338.833 98.563,338.729 98.167,338.418 98.167 C 338.301 98.167,338.166 98.017,338.118 97.833 C 338.070 97.650,337.912 97.500,337.766 97.500 C 337.620 97.500,337.500 97.388,337.500 97.250 C 337.500 97.111,337.352 97.000,337.167 97.000 C 336.944 97.000,336.833 96.889,336.833 96.667 C 336.833 96.349,336.722 96.333,334.506 96.333 C 332.349 96.333,332.165 96.358,332.000 96.667 M340.000 101.333 L 340.000 106.333 341.250 106.333 L 342.500 106.333 342.500 103.853 C 342.500 101.512,342.519 101.367,342.833 101.285 C 343.089 101.218,343.167 101.058,343.167 100.599 C 343.167 100.111,343.229 100.000,343.500 100.000 C 343.685 100.000,343.833 99.889,343.833 99.750 C 343.833 99.612,343.932 99.500,344.052 99.500 C 344.172 99.500,344.431 99.350,344.628 99.167 C 344.864 98.947,345.216 98.833,345.660 98.833 L 346.333 98.833 346.333 97.583 L 346.333 96.333 344.818 96.333 C 343.442 96.333,343.294 96.364,343.215 96.667 C 343.167 96.851,342.988 97.000,342.814 97.000 C 342.611 97.000,342.500 96.882,342.500 96.667 C 342.500 96.363,342.389 96.333,341.250 96.333 L 340.000 96.333 340.000 101.333 M77.548 99.167 C 77.596 99.350,77.755 99.500,77.901 99.500 C 78.047 99.500,78.167 99.612,78.167 99.750 C 78.167 99.956,77.864 100.000,76.442 100.000 L 74.716 100.000 74.899 99.417 L 75.082 98.833 76.271 98.833 C 77.321 98.833,77.471 98.873,77.548 99.167 M115.882 99.167 C 115.930 99.350,116.088 99.500,116.234 99.500 C 116.380 99.500,116.500 99.612,116.500 99.750 C 116.500 99.956,116.204 100.000,114.839 100.000 C 113.056 100.000,112.950 99.922,113.634 99.125 C 114.021 98.675,115.762 98.708,115.882 99.167 M164.833 99.072 C 164.833 99.203,164.983 99.358,165.167 99.417 C 166.102 99.714,165.488 100.000,163.917 100.000 C 162.345 100.000,161.731 99.714,162.667 99.417 C 162.850 99.358,163.000 99.203,163.000 99.072 C 163.000 98.894,163.232 98.833,163.917 98.833 C 164.601 98.833,164.833 98.894,164.833 99.072 M179.952 99.167 C 180.000 99.350,180.143 99.500,180.269 99.500 C 180.396 99.500,180.500 99.612,180.500 99.750 C 180.500 99.955,180.213 100.000,178.917 100.000 C 177.444 100.000,177.333 99.977,177.333 99.667 C 177.333 99.444,177.444 99.333,177.667 99.333 C 177.852 99.333,178.000 99.222,178.000 99.083 C 178.000 98.655,179.838 98.733,179.952 99.167 M200.667 99.167 C 200.667 99.389,200.778 99.500,201.000 99.500 C 201.215 99.500,201.333 99.611,201.333 99.813 C 201.333 99.985,201.446 100.219,201.583 100.333 C 201.721 100.447,201.833 100.711,201.833 100.919 C 201.833 101.127,201.721 101.341,201.583 101.394 C 201.426 101.454,201.333 101.709,201.333 102.078 C 201.333 102.587,201.280 102.667,200.937 102.667 C 200.719 102.667,200.447 102.779,200.333 102.917 C 200.192 103.087,199.814 103.167,199.146 103.167 C 198.387 103.167,198.167 103.111,198.167 102.917 C 198.167 102.778,198.019 102.667,197.833 102.667 C 197.626 102.667,197.500 102.556,197.500 102.373 C 197.500 102.212,197.350 101.987,197.167 101.872 C 196.906 101.709,196.833 101.483,196.833 100.832 C 196.833 100.111,196.878 100.000,197.167 100.000 C 197.350 100.000,197.500 99.893,197.500 99.761 C 197.500 99.630,197.650 99.475,197.833 99.417 C 198.017 99.358,198.167 99.203,198.167 99.072 C 198.167 98.886,198.443 98.833,199.417 98.833 C 200.556 98.833,200.667 98.863,200.667 99.167 M225.833 99.089 C 225.833 99.229,225.946 99.387,226.083 99.440 C 226.884 99.747,226.282 100.000,224.750 100.000 C 223.205 100.000,222.532 99.705,223.500 99.452 C 223.683 99.404,223.833 99.245,223.833 99.099 C 223.833 98.885,224.029 98.833,224.833 98.833 C 225.620 98.833,225.833 98.888,225.833 99.089 M235.882 99.167 C 235.930 99.350,236.088 99.500,236.234 99.500 C 236.380 99.500,236.500 99.612,236.500 99.750 C 236.500 99.955,236.205 100.000,234.849 100.000 C 233.280 100.000,233.202 99.983,233.285 99.667 C 233.333 99.483,233.476 99.333,233.603 99.333 C 233.730 99.333,233.833 99.221,233.833 99.083 C 233.833 98.654,235.768 98.732,235.882 99.167 M281.667 99.167 C 281.667 99.389,281.778 99.500,282.000 99.500 C 282.185 99.500,282.333 99.611,282.333 99.750 C 282.333 99.957,282.016 100.000,280.474 100.000 C 278.719 100.000,278.629 99.984,278.866 99.708 C 279.003 99.548,279.163 99.285,279.219 99.125 C 279.386 98.655,281.667 98.694,281.667 99.167 M296.715 99.167 C 296.763 99.350,296.922 99.500,297.068 99.500 C 297.214 99.500,297.333 99.612,297.333 99.750 C 297.333 99.889,297.481 100.000,297.667 100.000 C 297.972 100.000,298.000 100.111,298.000 101.333 C 298.000 102.556,297.972 102.667,297.667 102.667 C 297.483 102.667,297.333 102.738,297.333 102.826 C 297.333 102.913,297.142 103.176,296.909 103.409 C 296.329 103.989,294.167 104.061,294.167 103.500 C 294.167 103.278,294.056 103.167,293.833 103.167 C 293.557 103.167,293.500 103.056,293.500 102.512 C 293.500 102.138,293.387 101.744,293.238 101.595 C 292.999 101.356,292.999 101.323,293.238 101.232 C 293.421 101.161,293.500 100.911,293.500 100.399 C 293.500 99.996,293.575 99.667,293.668 99.667 C 293.760 99.667,293.999 99.479,294.198 99.250 C 294.693 98.681,296.572 98.619,296.715 99.167 M307.333 99.072 C 307.333 99.203,307.483 99.358,307.667 99.417 C 308.602 99.714,307.988 100.000,306.417 100.000 C 304.845 100.000,304.231 99.714,305.167 99.417 C 305.350 99.358,305.500 99.203,305.500 99.072 C 305.500 98.894,305.732 98.833,306.417 98.833 C 307.101 98.833,307.333 98.894,307.333 99.072 M335.667 99.167 C 335.667 99.389,335.778 99.500,336.000 99.500 C 336.185 99.500,336.333 99.611,336.333 99.750 C 336.333 99.957,336.017 100.000,334.488 100.000 C 332.811 100.000,332.667 99.976,332.905 99.738 C 333.049 99.594,333.167 99.332,333.167 99.155 C 333.167 98.866,333.293 98.833,334.417 98.833 C 335.556 98.833,335.667 98.863,335.667 99.167 " stroke="none" fill="#fcfcfc" fill-rule="evenodd"></path><path id="path1" d="M0.000 0.500 L 0.000 1.000 200.000 1.000 L 400.000 1.000 400.000 0.500 L 400.000 0.000 200.000 0.000 L 0.000 0.000 0.000 0.500 M294.227 62.750 C 294.174 62.887,294.024 63.000,293.894 63.000 C 293.763 63.000,293.612 63.115,293.558 63.256 C 293.504 63.397,293.241 63.625,292.974 63.763 C 292.661 63.925,292.454 64.189,292.390 64.507 C 292.323 64.843,292.192 65.000,291.979 65.000 C 291.738 65.000,291.667 65.123,291.667 65.543 C 291.667 65.906,291.556 66.156,291.333 66.295 C 290.776 66.643,290.871 70.500,291.436 70.500 C 291.594 70.500,291.667 70.710,291.667 71.167 C 291.667 71.722,291.722 71.833,292.000 71.833 C 292.222 71.833,292.333 71.944,292.333 72.167 C 292.333 72.389,292.444 72.500,292.667 72.500 C 292.889 72.500,293.000 72.611,293.000 72.833 C 293.000 73.019,293.111 73.167,293.250 73.167 C 293.387 73.167,293.500 73.279,293.500 73.417 C 293.500 73.556,293.648 73.667,293.833 73.667 C 294.017 73.667,294.317 73.817,294.500 74.000 C 294.804 74.304,295.056 74.333,297.333 74.333 C 299.722 74.333,299.833 74.319,299.833 74.000 C 299.833 73.730,299.944 73.667,300.417 73.667 C 300.802 73.667,301.000 73.588,301.000 73.436 C 301.000 73.309,301.150 73.166,301.333 73.118 C 301.517 73.070,301.667 72.920,301.667 72.785 C 301.667 72.650,301.817 72.500,302.000 72.452 C 302.255 72.385,302.333 72.224,302.333 71.766 C 302.333 71.278,302.395 71.167,302.667 71.167 C 302.987 71.167,303.000 71.056,303.000 68.401 C 303.000 65.776,302.983 65.631,302.667 65.548 C 302.416 65.483,302.333 65.321,302.333 64.897 C 302.333 64.444,302.268 64.333,302.000 64.333 C 301.778 64.333,301.667 64.222,301.667 64.000 C 301.667 63.817,301.572 63.667,301.457 63.667 C 301.341 63.667,301.153 63.517,301.039 63.333 C 300.906 63.121,300.650 63.000,300.332 63.000 C 300.000 63.000,299.833 62.917,299.833 62.750 C 299.833 62.538,299.416 62.500,297.078 62.500 C 294.783 62.500,294.307 62.542,294.227 62.750 M308.227 62.750 C 308.174 62.887,307.982 63.000,307.800 63.000 C 307.609 63.000,307.432 63.141,307.382 63.333 C 307.334 63.517,307.191 63.667,307.064 63.667 C 306.937 63.667,306.833 63.817,306.833 64.000 C 306.833 64.222,306.722 64.333,306.500 64.333 C 306.278 64.333,306.167 64.444,306.167 64.667 C 306.167 64.889,306.056 65.000,305.833 65.000 C 305.541 65.000,305.500 65.111,305.500 65.897 C 305.500 66.654,305.448 66.808,305.167 66.882 C 304.868 66.960,304.833 67.109,304.833 68.316 C 304.833 69.483,304.878 69.692,305.167 69.872 C 305.426 70.034,305.500 70.261,305.500 70.889 C 305.500 71.558,305.558 71.713,305.833 71.785 C 306.018 71.833,306.167 72.012,306.167 72.186 C 306.167 72.389,306.285 72.500,306.500 72.500 C 306.722 72.500,306.833 72.611,306.833 72.833 C 306.833 73.019,306.944 73.167,307.083 73.167 C 307.221 73.167,307.333 73.279,307.333 73.417 C 307.333 73.597,307.519 73.667,308.000 73.667 C 308.556 73.667,308.667 73.722,308.667 74.000 C 308.667 74.319,308.778 74.333,311.167 74.333 C 313.556 74.333,313.667 74.319,313.667 74.000 C 313.667 73.730,313.778 73.667,314.250 73.667 C 314.657 73.667,314.833 73.591,314.833 73.417 C 314.833 73.278,314.981 73.167,315.167 73.167 C 315.389 73.167,315.500 73.056,315.500 72.833 C 315.500 72.611,315.611 72.500,315.833 72.500 C 316.072 72.500,316.167 72.389,316.167 72.109 C 316.167 71.894,316.317 71.583,316.500 71.417 C 316.753 71.188,316.833 70.903,316.833 70.242 C 316.833 69.620,316.905 69.341,317.083 69.273 C 317.260 69.205,317.333 68.930,317.333 68.339 C 317.333 67.704,317.272 67.500,317.083 67.500 C 316.889 67.500,316.833 67.278,316.833 66.500 C 316.833 65.722,316.759 65.426,316.500 65.167 C 316.317 64.983,316.167 64.721,316.167 64.583 C 316.167 64.444,316.019 64.333,315.833 64.333 C 315.611 64.333,315.500 64.222,315.500 64.000 C 315.500 63.778,315.389 63.667,315.167 63.667 C 314.944 63.667,314.833 63.556,314.833 63.333 C 314.833 63.129,314.720 62.998,314.542 62.995 C 314.381 62.992,314.104 62.879,313.926 62.745 C 313.446 62.382,308.367 62.386,308.227 62.750 M322.500 62.744 C 322.500 62.927,322.329 63.000,321.901 63.000 C 321.452 63.000,321.281 63.080,321.219 63.318 C 321.173 63.493,320.993 63.673,320.818 63.719 C 320.643 63.765,320.500 63.922,320.500 64.068 C 320.500 64.214,320.387 64.333,320.250 64.333 C 320.083 64.333,320.000 64.500,320.000 64.833 C 320.000 65.108,319.921 65.333,319.823 65.333 C 319.726 65.333,319.693 65.407,319.749 65.498 C 319.807 65.593,319.740 65.621,319.592 65.564 C 319.364 65.476,319.333 65.807,319.333 68.316 C 319.333 71.056,319.346 71.167,319.667 71.167 C 319.944 71.167,320.000 71.278,320.000 71.833 C 320.000 72.258,320.076 72.500,320.210 72.500 C 320.325 72.500,320.515 72.653,320.632 72.840 C 320.749 73.027,320.917 73.135,321.005 73.080 C 321.094 73.025,321.167 73.135,321.167 73.323 C 321.167 73.613,321.271 73.667,321.833 73.667 C 322.389 73.667,322.500 73.722,322.500 74.000 C 322.500 74.318,322.611 74.333,324.960 74.333 C 327.239 74.333,327.435 74.309,327.628 74.000 C 327.746 73.812,328.017 73.667,328.251 73.667 C 328.509 73.667,328.667 73.572,328.667 73.417 C 328.667 73.278,328.815 73.167,329.000 73.167 C 329.222 73.167,329.333 73.056,329.333 72.833 C 329.333 72.611,329.444 72.500,329.667 72.500 C 329.889 72.500,330.000 72.389,330.000 72.167 C 330.000 71.983,330.104 71.833,330.232 71.833 C 330.503 71.833,330.667 71.478,330.667 70.891 C 330.667 70.663,330.779 70.364,330.917 70.226 C 331.105 70.038,331.167 69.571,331.167 68.333 C 331.167 67.095,331.105 66.629,330.917 66.440 C 330.779 66.303,330.667 65.953,330.667 65.663 C 330.667 65.276,330.578 65.112,330.333 65.048 C 330.149 65.000,330.000 64.821,330.000 64.647 C 330.000 64.444,329.882 64.333,329.667 64.333 C 329.444 64.333,329.333 64.222,329.333 64.000 C 329.333 63.778,329.222 63.667,329.000 63.667 C 328.778 63.667,328.667 63.556,328.667 63.333 C 328.667 63.150,328.610 63.009,328.542 63.020 C 328.203 63.073,328.000 62.977,328.000 62.765 C 328.000 62.572,327.497 62.525,325.250 62.508 C 322.877 62.490,322.500 62.522,322.500 62.744 M333.833 72.147 C 333.833 72.228,333.988 72.335,334.176 72.384 C 334.458 72.458,334.484 72.431,334.322 72.237 C 334.102 71.972,333.833 71.922,333.833 72.147 M343.116 72.842 C 343.046 73.111,343.082 73.134,343.350 72.991 C 343.728 72.789,343.741 72.731,343.433 72.613 C 343.295 72.560,343.166 72.653,343.116 72.842 M335.000 73.333 C 335.098 73.517,335.251 73.667,335.339 73.667 C 335.538 73.667,335.476 73.294,335.250 73.128 C 334.940 72.900,334.821 72.998,335.000 73.333 M341.418 73.999 C 341.141 74.304,341.140 74.333,341.396 74.333 C 341.551 74.333,341.722 74.218,341.776 74.076 C 341.931 73.672,341.749 73.633,341.418 73.999 M136.458 91.953 L 136.000 92.022 136.000 100.255 C 136.000 109.661,135.862 108.897,137.547 108.800 L 138.417 108.750 138.460 100.395 L 138.503 92.040 138.127 91.939 C 137.731 91.833,137.222 91.837,136.458 91.953 M253.142 91.937 C 252.991 91.981,252.823 92.183,252.769 92.384 C 252.637 92.877,252.642 106.853,252.775 107.958 L 252.880 108.833 253.944 108.833 C 254.933 108.833,255.020 108.803,255.171 108.406 C 255.368 107.887,255.395 92.224,255.199 92.103 C 254.987 91.972,253.446 91.848,253.142 91.937 M0.000 130.000 L 0.000 130.500 200.000 130.500 L 400.000 130.500 400.000 130.000 L 400.000 129.500 200.000 129.500 L 0.000 129.500 0.000 130.000 " stroke="none" fill="#4d92cf" fill-rule="evenodd"></path><path id="path2" d="M336.394 62.750 C 336.341 62.887,336.156 63.000,335.982 63.000 C 335.809 63.000,335.667 63.083,335.667 63.184 C 335.667 63.286,335.554 63.326,335.417 63.273 C 335.268 63.216,335.167 63.272,335.167 63.411 C 335.167 63.539,335.017 63.692,334.833 63.750 C 334.531 63.846,334.426 64.031,334.480 64.375 C 334.491 64.444,334.396 64.500,334.268 64.500 C 334.013 64.500,333.833 64.850,333.833 65.347 C 333.833 65.523,333.729 65.667,333.601 65.667 C 333.217 65.667,333.152 66.118,333.176 68.614 C 333.197 70.841,333.220 71.000,333.516 71.000 C 333.751 71.000,333.833 71.119,333.833 71.460 C 333.833 71.739,333.964 72.002,334.167 72.128 C 334.350 72.242,334.500 72.452,334.500 72.593 C 334.500 72.735,334.723 72.928,334.995 73.023 C 335.267 73.118,335.474 73.281,335.453 73.386 C 335.433 73.490,335.591 73.602,335.805 73.634 C 336.019 73.667,336.337 73.837,336.513 74.013 C 337.006 74.506,340.969 74.495,341.417 74.000 C 341.583 73.817,341.894 73.667,342.109 73.667 C 342.331 73.667,342.500 73.567,342.500 73.436 C 342.500 73.309,342.650 73.166,342.833 73.118 C 343.017 73.070,343.167 72.912,343.167 72.766 C 343.167 72.611,343.306 72.500,343.500 72.500 C 343.722 72.500,343.833 72.389,343.833 72.167 C 343.833 71.983,343.941 71.833,344.072 71.833 C 344.329 71.833,344.580 71.265,344.431 71.023 C 344.381 70.942,344.489 70.705,344.670 70.496 C 345.103 69.997,345.170 66.581,344.753 66.268 C 344.545 66.112,344.404 65.718,344.346 65.125 C 344.339 65.056,344.221 65.000,344.083 65.000 C 343.944 65.000,343.833 64.852,343.833 64.667 C 343.833 64.483,343.758 64.333,343.667 64.333 C 343.575 64.333,343.500 64.221,343.500 64.083 C 343.500 63.946,343.401 63.833,343.279 63.833 C 343.158 63.833,342.884 63.648,342.671 63.422 C 342.459 63.195,342.223 63.049,342.147 63.096 C 342.071 63.142,341.878 63.028,341.717 62.840 C 341.331 62.390,336.563 62.309,336.394 62.750 M358.273 70.616 C 358.086 70.803,358.159 71.000,358.417 71.000 C 358.554 71.000,358.667 70.929,358.667 70.843 C 358.667 70.633,358.406 70.482,358.273 70.616 " stroke="none" fill="#94b4e3" fill-rule="evenodd"></path><path id="path3" d="M350.235 62.807 C 349.289 63.338,348.334 64.191,348.232 64.598 C 348.176 64.819,348.035 65.000,347.917 65.000 C 347.800 65.000,347.656 65.255,347.597 65.567 C 347.539 65.878,347.381 66.225,347.246 66.337 C 346.883 66.638,346.888 70.301,347.251 70.440 C 347.389 70.493,347.549 70.828,347.606 71.185 C 347.668 71.573,347.801 71.833,347.938 71.833 C 348.064 71.833,348.167 71.929,348.167 72.046 C 348.167 72.277,349.107 73.167,349.350 73.167 C 349.433 73.167,349.500 73.279,349.500 73.417 C 349.500 73.554,349.638 73.667,349.808 73.667 C 349.977 73.667,350.251 73.817,350.417 74.000 C 350.917 74.553,355.500 74.470,355.500 73.908 C 355.500 73.788,355.706 73.665,355.958 73.636 C 356.210 73.607,356.400 73.495,356.379 73.387 C 356.358 73.280,356.565 73.142,356.839 73.082 C 357.279 72.986,357.883 72.342,357.548 72.328 C 357.476 72.325,357.586 72.181,357.793 72.009 C 358.015 71.823,358.188 71.468,358.217 71.139 C 358.254 70.716,358.335 70.595,358.557 70.634 C 358.823 70.680,358.845 70.482,358.824 68.264 C 358.810 66.754,358.739 65.858,358.635 65.880 C 358.544 65.900,358.389 65.767,358.292 65.583 C 358.194 65.400,358.048 65.137,357.968 65.000 C 357.887 64.862,357.733 64.544,357.624 64.292 C 357.516 64.040,357.340 63.833,357.234 63.833 C 357.128 63.833,356.938 63.709,356.812 63.558 C 356.686 63.406,356.340 63.180,356.042 63.055 C 355.744 62.931,355.500 62.755,355.500 62.664 C 355.500 62.351,350.824 62.478,350.235 62.807 " stroke="none" fill="#ccdcec" fill-rule="evenodd"></path><path id="path4" d="" stroke="none" fill="#e8100dc" fill-rule="evenodd"></path></g></svg>