<svg id="svg" version="1.1" xmlns="http://www.w3.org/2000/svg" xmlns:xlink="http://www.w3.org/1999/xlink" width="400" height="225.0909090909091" viewBox="0, 0, 400,225.0909090909091"><g id="svgg"><path id="path0" d="M0.000 112.545 L 0.000 225.091 200.000 225.091 L 400.000 225.091 400.000 112.545 L 400.000 0.000 200.000 0.000 L 0.000 0.000 0.000 112.545 M348.909 73.905 C 351.650 74.317,354.962 75.146,356.455 75.794 C 356.655 75.880,357.473 76.223,358.273 76.556 C 361.682 77.973,365.727 80.471,368.262 82.726 C 369.485 83.813,372.055 86.416,372.818 87.338 C 373.218 87.822,373.729 88.435,373.954 88.700 C 374.179 88.965,374.363 89.237,374.363 89.305 C 374.364 89.373,374.468 89.537,374.596 89.669 C 375.548 90.654,378.407 95.833,378.995 97.636 C 379.174 98.186,379.383 98.718,379.460 98.818 C 379.599 99.001,380.010 100.364,379.925 100.364 C 379.900 100.364,379.606 99.975,379.272 99.500 C 377.819 97.437,375.041 94.701,373.590 93.905 C 373.366 93.782,372.795 93.469,372.321 93.211 C 368.594 91.175,363.153 91.193,356.455 93.261 C 355.755 93.477,354.732 93.776,354.182 93.925 C 353.632 94.073,353.018 94.271,352.818 94.365 C 352.426 94.547,350.664 95.027,347.636 95.775 C 343.725 96.742,338.630 96.474,335.636 95.145 C 328.657 92.047,326.923 83.237,332.244 77.914 C 334.949 75.208,337.025 74.274,341.909 73.563 C 342.850 73.426,347.105 73.634,348.909 73.905 M38.857 86.547 C 39.735 86.749,40.618 86.988,40.818 87.078 C 41.018 87.169,41.669 87.458,42.264 87.720 C 44.536 88.718,47.959 91.644,48.794 93.300 C 48.963 93.635,49.178 94.032,49.271 94.182 C 49.985 95.325,50.909 98.250,50.909 99.366 L 50.909 100.000 47.276 100.000 L 43.643 100.000 43.541 99.500 C 43.164 97.666,42.537 96.331,41.569 95.307 C 36.786 90.242,27.393 93.111,27.436 99.625 C 27.460 103.340,29.021 104.930,34.545 106.866 C 35.695 107.268,37.741 107.984,39.091 108.455 C 41.703 109.367,45.932 111.194,46.331 111.584 C 46.463 111.713,46.631 111.818,46.703 111.818 C 47.301 111.818,50.042 115.149,50.811 116.810 C 53.303 122.195,51.564 129.914,46.992 133.753 C 46.533 134.139,45.986 134.598,45.778 134.773 C 45.569 134.948,45.345 135.091,45.279 135.091 C 45.213 135.091,45.001 135.236,44.807 135.414 C 44.613 135.592,44.005 135.955,43.455 136.220 C 37.093 139.286,29.873 138.683,24.236 134.615 C 20.838 132.162,18.215 127.147,18.185 123.045 L 18.182 122.545 21.795 122.545 L 25.408 122.545 25.534 123.500 C 25.800 125.505,27.347 128.404,28.681 129.398 C 29.057 129.678,29.405 129.958,29.455 130.021 C 29.751 130.393,31.599 131.137,32.833 131.381 C 37.944 132.392,42.616 130.135,44.206 125.887 C 44.595 124.845,44.732 121.827,44.408 121.398 C 44.319 121.279,44.146 120.834,44.025 120.409 C 43.903 119.984,43.735 119.636,43.651 119.636 C 43.567 119.636,43.400 119.411,43.280 119.136 C 43.160 118.861,42.700 118.350,42.258 118.000 C 41.815 117.650,41.336 117.260,41.192 117.134 C 40.746 116.742,38.212 115.740,35.364 114.829 C 33.864 114.349,32.391 113.850,32.091 113.722 C 31.791 113.593,31.177 113.390,30.727 113.271 C 30.277 113.153,29.827 112.992,29.727 112.915 C 29.627 112.838,29.237 112.675,28.860 112.554 C 21.197 110.085,17.884 101.469,21.738 94.033 C 23.004 91.591,24.554 90.049,27.681 88.119 C 30.261 86.527,35.529 85.786,38.857 86.547 M82.388 86.756 C 82.775 86.872,83.091 87.036,83.091 87.120 C 83.091 87.204,83.193 87.275,83.318 87.279 C 83.898 87.294,85.349 89.097,85.554 90.056 C 85.623 90.375,85.740 90.718,85.815 90.818 C 85.891 90.918,86.054 91.315,86.178 91.699 C 86.302 92.084,86.517 92.616,86.655 92.881 C 86.794 93.147,86.907 93.461,86.908 93.581 C 86.909 93.700,87.201 94.518,87.558 95.399 C 87.915 96.280,88.534 97.900,88.932 99.000 C 89.331 100.100,89.730 101.164,89.820 101.364 C 89.910 101.564,90.239 102.423,90.552 103.273 C 90.865 104.123,91.231 105.064,91.365 105.364 C 91.499 105.664,91.708 106.236,91.828 106.636 C 91.949 107.036,92.109 107.445,92.183 107.545 C 92.258 107.645,92.379 107.932,92.453 108.182 C 92.526 108.432,92.690 108.882,92.816 109.182 C 92.943 109.482,93.186 110.136,93.356 110.636 C 93.526 111.136,93.736 111.709,93.824 111.909 C 93.912 112.109,94.244 112.968,94.562 113.818 C 94.880 114.668,95.339 115.895,95.583 116.545 C 95.826 117.195,96.142 117.985,96.285 118.300 C 96.428 118.615,96.545 118.930,96.545 119.000 C 96.545 119.070,96.658 119.385,96.796 119.700 C 96.934 120.015,97.186 120.682,97.356 121.182 C 97.526 121.682,97.737 122.255,97.825 122.455 C 98.133 123.151,99.589 127.005,99.817 127.727 C 99.944 128.127,100.108 128.536,100.182 128.636 C 100.256 128.736,100.418 129.133,100.542 129.518 C 100.666 129.902,100.880 130.434,101.019 130.699 C 101.157 130.965,101.271 131.264,101.272 131.364 C 101.274 131.544,102.226 134.120,102.548 134.818 C 102.806 135.377,103.454 137.165,103.454 137.318 C 103.455 137.393,101.695 137.455,99.545 137.455 C 96.176 137.455,95.636 137.417,95.636 137.179 C 95.636 137.028,95.555 136.762,95.455 136.588 C 95.355 136.415,94.780 134.882,94.178 133.182 C 93.576 131.482,93.012 129.927,92.924 129.727 C 92.836 129.527,92.666 129.077,92.545 128.727 C 92.425 128.377,92.255 127.927,92.166 127.727 C 91.949 127.238,91.577 126.181,91.063 124.593 L 90.636 123.276 80.764 123.274 L 70.891 123.273 70.541 124.045 C 70.348 124.470,70.188 124.929,70.186 125.063 C 70.184 125.198,70.061 125.566,69.913 125.882 C 69.766 126.197,69.027 128.173,68.272 130.273 C 67.516 132.373,66.778 134.349,66.631 134.664 C 66.484 134.979,66.364 135.305,66.364 135.388 C 66.364 135.471,66.185 135.970,65.967 136.496 L 65.569 137.455 61.694 137.455 C 59.562 137.455,57.818 137.413,57.818 137.361 C 57.818 137.310,57.899 137.126,57.998 136.952 C 58.098 136.778,58.471 135.818,58.829 134.818 C 59.187 133.818,59.552 132.836,59.641 132.636 C 59.729 132.436,60.061 131.577,60.378 130.727 C 60.695 129.877,61.058 128.936,61.183 128.636 C 61.309 128.336,61.512 127.776,61.635 127.392 C 61.758 127.007,61.971 126.475,62.110 126.210 C 62.248 125.944,62.362 125.658,62.363 125.573 C 62.363 125.488,62.475 125.161,62.612 124.846 C 62.748 124.531,63.073 123.700,63.335 123.000 C 63.596 122.300,64.168 120.786,64.607 119.636 C 65.046 118.486,65.509 117.218,65.635 116.818 C 65.762 116.418,65.927 116.009,66.001 115.909 C 66.076 115.809,66.197 115.523,66.271 115.273 C 66.344 115.023,66.507 114.573,66.634 114.273 C 66.987 113.434,67.943 110.873,68.093 110.364 C 68.166 110.114,68.285 109.827,68.357 109.727 C 68.428 109.627,68.759 108.768,69.091 107.818 C 69.423 106.868,69.753 106.009,69.823 105.909 C 69.894 105.809,70.096 105.277,70.273 104.727 C 70.449 104.177,70.656 103.645,70.732 103.545 C 70.809 103.445,70.957 103.077,71.061 102.727 C 71.267 102.037,72.092 99.769,72.350 99.182 C 72.439 98.982,72.772 98.123,73.091 97.273 C 73.410 96.423,73.743 95.564,73.831 95.364 C 74.090 94.777,74.915 92.509,75.121 91.818 C 75.225 91.468,75.373 91.100,75.450 91.000 C 75.526 90.900,75.691 90.501,75.816 90.113 C 76.695 87.387,79.578 85.914,82.388 86.756 M121.711 87.193 C 122.626 87.764,123.804 89.329,125.070 91.657 C 125.308 92.096,125.557 92.495,125.622 92.545 C 125.687 92.595,126.269 93.515,126.916 94.589 C 127.562 95.663,128.436 97.095,128.858 97.771 C 129.280 98.447,129.762 99.245,129.928 99.545 C 130.095 99.845,130.491 100.500,130.810 101.000 C 131.128 101.500,131.871 102.727,132.461 103.727 C 133.051 104.727,133.585 105.586,133.648 105.636 C 133.712 105.686,133.796 105.810,133.836 105.912 C 133.900 106.073,136.266 110.029,137.127 111.413 C 137.296 111.686,137.669 112.318,137.954 112.818 C 138.842 114.374,138.997 114.634,139.094 114.727 C 139.145 114.777,139.674 115.636,140.269 116.636 C 140.864 117.636,141.399 118.495,141.458 118.545 C 141.516 118.595,141.707 118.923,141.882 119.273 C 142.057 119.623,142.440 120.277,142.733 120.727 C 143.026 121.177,143.351 121.709,143.456 121.909 C 143.561 122.109,143.974 122.805,144.375 123.455 C 144.775 124.105,145.150 124.780,145.209 124.955 C 145.579 126.062,145.636 123.541,145.636 106.091 L 145.636 86.909 149.367 86.909 L 153.098 86.909 153.049 110.500 L 153.000 134.091 152.507 135.025 C 150.588 138.663,145.810 138.862,143.526 135.399 C 142.141 133.299,142.097 133.230,141.478 132.182 C 141.154 131.632,140.649 130.814,140.356 130.364 C 140.064 129.914,139.762 129.423,139.685 129.273 C 139.295 128.511,138.451 127.174,138.325 127.121 C 138.246 127.088,138.182 126.986,138.182 126.896 C 138.182 126.805,137.527 125.666,136.727 124.364 C 135.927 123.062,135.273 121.922,135.273 121.832 C 135.273 121.741,135.211 121.639,135.136 121.606 C 134.963 121.529,133.818 119.664,133.818 119.458 C 133.818 119.373,133.753 119.276,133.673 119.242 C 133.593 119.209,133.204 118.622,132.809 117.939 C 132.414 117.255,131.845 116.301,131.545 115.818 C 131.245 115.336,130.673 114.396,130.273 113.730 C 129.873 113.064,129.463 112.382,129.361 112.214 C 129.260 112.046,128.937 111.500,128.643 111.000 C 128.349 110.500,128.064 110.050,128.009 110.000 C 127.906 109.907,127.783 109.702,126.827 108.030 C 126.227 106.980,126.057 106.695,125.617 106.000 C 125.459 105.750,124.847 104.743,124.256 103.762 C 123.665 102.782,122.999 101.677,122.775 101.308 C 122.551 100.939,122.142 100.234,121.866 99.742 L 121.364 98.848 121.317 118.151 L 121.271 137.455 117.541 137.455 L 113.812 137.455 113.860 113.864 L 113.909 90.273 114.329 89.421 C 114.681 88.706,115.380 87.950,116.482 87.092 C 117.429 86.354,120.459 86.413,121.711 87.193 M195.091 86.812 C 196.694 87.063,199.276 87.693,199.909 87.987 C 200.109 88.080,200.968 88.460,201.818 88.831 C 202.668 89.203,203.581 89.658,203.846 89.844 C 204.112 90.030,204.381 90.182,204.445 90.182 C 204.509 90.182,204.660 90.262,204.780 90.360 C 204.901 90.458,205.655 91.022,206.455 91.614 C 208.580 93.185,211.313 95.962,211.977 97.225 C 212.114 97.486,212.380 97.864,212.568 98.066 C 212.756 98.267,212.909 98.533,212.909 98.655 C 212.909 98.778,212.972 98.906,213.049 98.939 C 213.176 98.995,213.878 100.373,214.608 102.000 C 217.357 108.129,217.357 116.119,214.607 122.324 C 214.373 122.852,214.182 123.315,214.182 123.353 C 214.182 123.592,212.508 126.314,211.660 127.455 C 207.507 133.037,201.248 136.741,194.433 137.650 C 185.274 138.871,176.008 135.032,170.457 127.716 C 170.007 127.122,169.575 126.555,169.497 126.455 C 169.079 125.915,167.476 122.897,167.276 122.273 C 167.148 121.873,166.985 121.464,166.913 121.364 C 166.359 120.591,165.518 116.815,165.273 114.000 C 164.984 110.678,165.775 105.378,166.914 103.000 C 167.010 102.800,167.204 102.309,167.345 101.909 C 167.487 101.509,167.809 100.814,168.061 100.364 C 168.314 99.914,168.697 99.218,168.913 98.818 C 169.924 96.949,172.946 93.493,174.818 92.064 C 176.982 90.413,179.666 88.857,181.210 88.360 C 181.594 88.236,181.991 88.071,182.091 87.993 C 182.191 87.915,182.805 87.720,183.455 87.560 C 184.105 87.400,184.923 87.184,185.273 87.079 C 187.054 86.547,192.465 86.400,195.091 86.812 M257.818 90.364 L 257.818 93.818 247.186 93.818 L 236.553 93.818 236.504 101.909 L 236.455 110.000 247.136 110.000 L 257.818 110.000 257.818 113.455 L 257.818 116.909 247.136 116.909 L 236.455 116.909 236.505 127.182 L 236.556 137.455 232.733 137.455 L 228.909 137.455 228.909 114.318 C 228.909 91.543,228.915 91.167,229.277 90.215 C 229.710 89.075,230.726 87.911,231.629 87.521 C 231.983 87.368,232.395 87.172,232.545 87.086 C 232.695 87.001,238.443 86.926,245.318 86.920 L 257.818 86.909 257.818 90.364 M278.545 112.182 L 278.545 137.455 274.818 137.455 L 271.091 137.455 271.091 112.182 L 271.091 86.909 274.818 86.909 L 278.545 86.909 278.545 112.182 M186.818 93.834 C 186.018 94.030,185.118 94.298,184.818 94.431 C 184.518 94.564,183.986 94.782,183.636 94.916 C 182.749 95.255,180.411 96.680,179.643 97.350 C 176.082 100.460,174.221 103.670,173.052 108.727 C 172.803 109.801,172.801 114.953,173.048 116.000 C 174.343 121.484,177.173 125.645,181.370 128.235 C 182.855 129.152,185.160 130.099,186.858 130.491 C 189.522 131.107,195.801 130.801,196.818 130.007 C 196.918 129.929,197.327 129.761,197.727 129.633 C 200.040 128.893,203.926 125.865,205.689 123.431 C 210.628 116.610,210.166 105.719,204.683 99.727 C 204.408 99.427,204.183 99.129,204.183 99.065 C 204.178 98.377,199.701 95.478,197.242 94.570 C 194.233 93.459,189.675 93.137,186.818 93.834 M80.408 97.132 C 79.994 98.359,79.621 99.375,79.455 99.727 C 79.360 99.927,79.169 100.418,79.031 100.818 C 78.893 101.218,78.020 103.632,77.093 106.182 C 76.165 108.732,75.292 111.145,75.153 111.545 C 75.013 111.945,74.828 112.436,74.742 112.636 C 74.655 112.836,74.445 113.409,74.275 113.909 C 74.105 114.409,73.851 115.076,73.710 115.391 C 73.160 116.624,72.685 116.545,80.727 116.545 C 84.727 116.545,88.000 116.513,88.000 116.474 C 88.000 116.363,85.292 108.865,85.104 108.455 C 85.013 108.255,84.772 107.600,84.571 107.000 C 83.999 105.301,83.641 104.321,83.377 103.727 C 83.243 103.427,83.037 102.855,82.918 102.455 C 82.799 102.055,82.627 101.564,82.536 101.364 C 82.445 101.164,82.032 100.059,81.619 98.909 C 80.733 96.445,80.671 96.353,80.408 97.132 M379.636 101.423 L 380.454 101.545 380.779 103.000 C 382.080 108.805,382.094 115.404,380.818 121.091 C 379.840 125.448,376.527 132.692,374.595 134.695 C 374.468 134.827,374.364 134.991,374.363 135.058 C 374.363 135.126,374.179 135.399,373.954 135.665 C 373.729 135.931,373.262 136.504,372.915 136.938 C 371.805 138.329,368.318 141.692,366.817 142.820 C 365.411 143.877,365.056 144.120,362.909 145.494 C 353.179 151.726,338.261 152.613,327.314 147.612 C 326.686 147.325,326.141 147.091,326.102 147.091 C 325.973 147.091,321.921 144.715,321.273 144.260 C 320.923 144.014,320.485 143.712,320.300 143.588 C 319.879 143.308,318.364 142.144,318.364 142.102 C 318.364 142.085,319.120 142.271,320.045 142.516 C 323.341 143.390,329.076 143.674,332.000 143.109 C 335.285 142.474,336.308 142.163,338.680 141.079 C 339.104 140.886,339.496 140.727,339.551 140.727 C 339.606 140.727,339.873 140.575,340.144 140.388 C 340.415 140.202,341.127 139.737,341.727 139.356 C 343.341 138.331,346.616 134.942,347.957 132.909 C 348.584 131.959,349.157 131.100,349.230 131.000 C 349.714 130.341,353.455 122.769,353.455 122.449 C 353.455 122.408,353.650 121.942,353.889 121.414 C 354.128 120.887,354.503 120.045,354.723 119.545 C 355.484 117.814,355.870 116.990,356.940 114.818 C 358.165 112.332,358.061 112.513,359.646 110.091 C 360.301 109.090,361.283 107.789,361.827 107.200 C 362.666 106.293,363.272 105.754,365.225 104.172 C 367.840 102.055,374.890 100.709,379.636 101.423 M306.151 109.450 C 308.034 111.657,309.746 113.213,311.822 114.604 C 312.370 114.971,312.904 115.333,313.009 115.408 C 313.891 116.041,317.851 117.962,318.909 118.271 C 319.159 118.344,319.609 118.508,319.909 118.636 C 320.209 118.764,321.232 119.132,322.182 119.455 C 323.132 119.777,324.167 120.155,324.482 120.293 C 324.797 120.432,325.142 120.545,325.249 120.545 C 325.457 120.545,327.361 121.354,327.818 121.636 C 327.968 121.729,328.438 121.985,328.862 122.206 C 329.812 122.702,331.603 124.534,332.218 125.641 C 336.773 133.842,328.889 142.658,319.448 139.919 C 318.561 139.662,315.872 138.385,315.395 137.995 C 315.278 137.900,314.732 137.458,314.182 137.014 C 312.955 136.024,312.278 135.317,311.203 133.906 C 310.747 133.308,310.298 132.729,310.206 132.619 C 310.114 132.510,309.903 132.183,309.737 131.892 C 309.572 131.601,309.201 130.955,308.914 130.455 C 305.621 124.720,303.978 117.610,304.293 110.455 C 304.419 107.577,304.466 107.405,304.953 108.016 C 305.145 108.257,305.684 108.902,306.151 109.450 " stroke="none" fill="#fbfbfb" fill-rule="evenodd"></path><path id="path1" d="M33.636 86.355 C 33.286 86.429,32.433 86.597,31.739 86.726 C 29.179 87.205,26.782 88.420,24.746 90.273 C 21.547 93.183,20.053 96.844,20.221 101.364 C 20.294 103.316,21.012 106.154,21.479 106.333 C 21.565 106.367,21.636 106.475,21.636 106.573 C 21.636 107.297,24.567 110.418,25.804 111.010 C 26.209 111.205,26.542 111.425,26.543 111.500 C 26.545 111.575,26.625 111.636,26.723 111.636 C 26.820 111.636,27.433 111.881,28.085 112.179 C 28.736 112.477,30.395 113.096,31.771 113.554 C 33.147 114.012,34.436 114.460,34.636 114.548 C 34.836 114.637,35.532 114.849,36.182 115.019 C 36.832 115.190,37.445 115.388,37.545 115.459 C 37.645 115.531,38.051 115.693,38.447 115.821 C 43.378 117.412,45.816 121.787,44.193 126.136 C 43.960 126.761,43.699 127.273,43.612 127.273 C 43.525 127.273,43.455 127.359,43.455 127.464 C 43.455 128.711,40.032 130.891,37.151 131.479 C 31.373 132.659,25.455 128.378,25.455 123.019 L 25.455 122.545 21.805 122.545 L 18.156 122.545 18.271 123.591 C 18.431 125.036,18.716 126.566,18.904 127.000 C 18.991 127.200,19.207 127.773,19.383 128.273 C 19.653 129.038,21.093 131.521,21.440 131.818 C 21.498 131.868,21.826 132.235,22.169 132.634 C 28.436 139.927,42.308 139.805,48.255 132.403 C 48.714 131.831,49.168 131.269,49.264 131.153 C 49.852 130.440,50.994 127.894,51.360 126.480 C 52.738 121.150,51.668 116.754,48.081 113.010 C 46.910 111.788,43.737 110.068,41.182 109.271 C 40.782 109.146,40.373 108.984,40.273 108.910 C 40.173 108.837,39.845 108.719,39.545 108.647 C 39.245 108.576,38.755 108.406,38.455 108.270 C 38.155 108.134,37.500 107.898,37.000 107.746 C 35.368 107.249,33.915 106.738,33.593 106.549 C 33.420 106.447,33.172 106.364,33.043 106.364 C 32.914 106.364,32.232 106.088,31.529 105.751 C 24.179 102.228,27.047 92.666,35.454 92.667 C 39.537 92.667,42.884 95.421,43.538 99.318 L 43.653 100.000 47.281 100.000 L 50.909 100.000 50.909 99.591 C 50.914 92.261,41.117 84.754,33.636 86.355 M79.091 86.760 C 77.884 87.105,76.304 88.716,75.915 90.000 C 75.840 90.250,75.669 90.700,75.537 91.000 C 75.107 91.972,74.184 94.449,74.182 94.636 C 74.180 94.736,74.066 95.035,73.928 95.301 C 73.789 95.566,73.575 96.098,73.451 96.482 C 73.327 96.867,73.163 97.264,73.086 97.364 C 73.010 97.464,72.862 97.832,72.757 98.182 C 72.536 98.922,71.728 101.118,71.385 101.909 C 71.255 102.209,70.880 103.191,70.551 104.091 C 70.223 104.991,69.842 105.985,69.704 106.300 C 69.567 106.615,69.455 106.930,69.455 107.000 C 69.455 107.070,69.334 107.385,69.187 107.700 C 69.039 108.015,68.628 109.091,68.274 110.091 C 67.919 111.091,67.552 112.073,67.458 112.273 C 67.364 112.473,67.031 113.332,66.718 114.182 C 66.405 115.032,66.044 115.973,65.914 116.273 C 65.785 116.573,65.577 117.145,65.452 117.545 C 65.327 117.945,65.165 118.355,65.091 118.455 C 65.017 118.555,64.858 118.964,64.738 119.364 C 64.618 119.764,64.447 120.255,64.358 120.455 C 64.269 120.655,63.903 121.595,63.545 122.545 C 62.223 126.048,61.563 127.775,60.791 129.745 C 60.356 130.855,59.999 131.836,59.999 131.927 C 59.998 132.017,59.884 132.308,59.746 132.573 C 59.608 132.839,59.394 133.370,59.271 133.755 C 59.148 134.140,58.948 134.700,58.825 135.000 C 58.703 135.300,58.433 135.975,58.226 136.500 L 57.849 137.455 61.743 137.455 C 64.451 137.455,65.636 137.394,65.636 137.255 C 65.636 137.145,65.749 136.797,65.888 136.482 C 66.026 136.167,66.239 135.623,66.361 135.273 C 66.482 134.923,66.656 134.473,66.746 134.273 C 66.897 133.936,68.080 130.688,68.666 129.000 C 68.805 128.600,68.996 128.109,69.091 127.909 C 69.261 127.548,69.419 127.115,70.293 124.611 L 70.746 123.314 76.055 123.190 C 78.975 123.122,83.437 123.092,85.972 123.124 L 90.580 123.182 91.481 125.636 C 91.976 126.986,92.468 128.377,92.573 128.727 C 92.679 129.077,92.827 129.445,92.903 129.545 C 92.979 129.645,93.188 130.218,93.368 130.818 C 93.549 131.418,93.756 131.991,93.829 132.091 C 93.902 132.191,94.047 132.559,94.152 132.909 C 94.256 133.259,94.659 134.405,95.048 135.455 L 95.755 137.364 99.605 137.413 C 103.398 137.461,104.127 137.346,103.293 136.831 C 103.204 136.776,103.075 136.505,103.006 136.229 C 102.937 135.953,102.767 135.482,102.627 135.182 C 102.488 134.882,102.083 133.818,101.728 132.818 C 101.373 131.818,101.010 130.836,100.920 130.636 C 100.831 130.436,100.454 129.455,100.083 128.455 C 99.713 127.455,99.342 126.473,99.260 126.273 C 98.790 125.131,98.182 123.497,98.182 123.377 C 98.182 123.300,98.064 122.979,97.919 122.664 C 97.775 122.349,97.363 121.314,97.003 120.364 C 96.644 119.414,96.280 118.473,96.195 118.273 C 96.110 118.073,95.783 117.214,95.469 116.364 C 94.344 113.320,93.947 112.265,93.724 111.727 C 93.599 111.427,93.395 110.855,93.271 110.455 C 93.146 110.055,92.982 109.645,92.908 109.545 C 92.833 109.445,92.712 109.159,92.638 108.909 C 92.565 108.659,92.402 108.209,92.277 107.909 C 92.152 107.609,91.836 106.791,91.575 106.091 C 91.313 105.391,90.741 103.877,90.302 102.727 C 89.863 101.577,89.402 100.322,89.277 99.937 C 89.153 99.552,88.938 99.020,88.799 98.755 C 88.661 98.490,88.547 98.203,88.547 98.118 C 88.546 98.034,88.433 97.706,88.296 97.391 C 87.961 96.625,86.984 94.023,86.817 93.455 C 86.743 93.205,86.624 92.918,86.553 92.818 C 86.481 92.718,86.159 91.900,85.838 91.000 C 84.529 87.337,82.199 85.872,79.091 86.760 M117.476 86.744 C 116.183 87.139,115.031 88.163,114.396 89.484 C 114.019 90.267,114.015 90.449,113.888 113.864 L 113.760 137.455 117.516 137.455 L 121.273 137.455 121.273 118.141 L 121.273 98.826 121.929 99.822 C 122.289 100.370,122.741 101.105,122.933 101.455 C 123.125 101.805,123.464 102.388,123.686 102.751 C 123.909 103.113,124.697 104.423,125.437 105.660 C 126.177 106.897,126.995 108.250,127.255 108.668 C 127.515 109.085,127.992 109.862,128.315 110.395 C 129.356 112.112,131.836 116.213,133.163 118.412 C 133.873 119.589,134.593 120.776,134.763 121.049 C 134.933 121.322,135.308 121.955,135.598 122.455 C 135.888 122.955,136.771 124.408,137.562 125.685 C 139.395 128.643,140.334 130.201,140.493 130.545 C 140.562 130.695,140.688 130.900,140.774 131.000 C 140.859 131.100,141.570 132.230,142.352 133.511 C 143.135 134.792,143.969 136.048,144.206 136.301 C 146.534 138.794,150.902 138.105,152.455 135.000 L 153.000 133.909 153.049 110.409 L 153.098 86.909 149.368 86.909 L 145.638 86.909 145.592 106.227 L 145.545 125.545 145.091 124.748 C 144.841 124.310,144.555 123.819,144.455 123.657 C 144.355 123.496,143.608 122.259,142.796 120.909 C 140.964 117.863,139.505 115.450,139.278 115.091 C 138.928 114.537,137.725 112.449,137.655 112.273 C 137.615 112.173,137.532 112.050,137.472 112.000 C 137.331 111.883,136.182 110.003,136.182 109.889 C 136.182 109.842,136.097 109.704,135.994 109.583 C 135.891 109.462,135.512 108.873,135.152 108.273 C 134.461 107.119,132.192 103.365,131.496 102.223 C 131.269 101.850,130.947 101.280,130.781 100.955 C 130.614 100.630,130.411 100.364,130.330 100.364 C 130.248 100.364,130.182 100.289,130.182 100.198 C 130.182 100.107,129.514 98.941,128.699 97.607 C 127.883 96.273,127.047 94.895,126.841 94.545 C 126.635 94.195,126.402 93.882,126.324 93.848 C 126.246 93.815,126.182 93.718,126.182 93.633 C 126.182 93.442,125.394 92.126,123.783 89.627 C 122.041 86.923,119.978 85.981,117.476 86.744 M187.455 86.744 C 186.805 86.828,185.424 87.113,184.388 87.377 C 182.559 87.843,181.871 88.092,179.859 89.015 C 179.331 89.257,178.820 89.455,178.722 89.455 C 178.625 89.455,178.545 89.536,178.545 89.636 C 178.545 89.736,178.454 89.818,178.342 89.818 C 177.323 89.818,172.603 93.859,170.654 96.399 C 170.094 97.129,169.547 97.833,169.439 97.963 C 166.516 101.473,164.562 110.964,165.596 116.636 C 166.182 119.854,168.110 124.656,169.500 126.357 C 169.725 126.633,170.032 127.043,170.182 127.269 C 170.889 128.334,173.285 130.881,174.636 132.004 C 175.664 132.857,177.049 133.818,177.252 133.818 C 177.363 133.818,177.455 133.889,177.455 133.975 C 177.455 134.406,182.796 136.662,184.866 137.106 C 185.340 137.207,186.055 137.368,186.455 137.463 C 188.988 138.065,194.355 137.835,197.537 136.988 C 199.159 136.557,199.896 136.287,201.771 135.439 C 202.195 135.248,202.618 135.091,202.712 135.091 C 202.806 135.091,202.991 134.989,203.123 134.864 C 203.256 134.739,203.609 134.514,203.909 134.364 C 204.209 134.214,204.495 134.050,204.545 134.000 C 204.595 133.950,205.123 133.582,205.717 133.182 C 219.745 123.739,220.314 102.387,206.818 91.912 C 204.752 90.309,200.920 88.182,200.097 88.182 C 199.955 88.182,199.795 88.109,199.740 88.021 C 199.605 87.802,196.050 86.951,194.364 86.733 C 192.746 86.524,189.116 86.530,187.455 86.744 M232.636 87.162 C 230.797 87.741,229.745 88.804,229.185 90.647 C 228.950 91.425,228.913 94.631,228.911 114.500 L 228.909 137.455 232.636 137.455 L 236.364 137.455 236.364 127.182 L 236.364 116.909 247.091 116.909 L 257.818 116.909 257.818 113.545 L 257.818 110.182 247.091 110.182 L 236.364 110.182 236.364 102.000 L 236.364 93.818 247.091 93.818 L 257.818 93.818 257.818 90.364 L 257.818 86.909 245.591 86.921 C 236.300 86.930,233.189 86.988,232.636 87.162 M271.091 112.182 L 271.091 137.455 274.818 137.455 L 278.545 137.455 278.545 112.182 L 278.545 86.909 274.818 86.909 L 271.091 86.909 271.091 112.182 M194.909 93.840 C 199.830 94.963,203.432 97.478,206.239 101.752 C 206.707 102.465,207.091 103.097,207.091 103.155 C 207.091 103.214,207.282 103.694,207.516 104.222 C 208.554 106.563,209.274 109.858,209.272 112.259 C 209.271 113.714,208.628 117.808,208.359 118.078 C 208.261 118.175,208.182 118.359,208.182 118.486 C 208.182 118.614,207.936 119.254,207.636 119.909 C 207.336 120.564,207.091 121.148,207.091 121.207 C 207.091 121.373,205.439 123.841,204.918 124.454 C 203.522 126.097,201.703 127.590,199.455 128.940 C 195.969 131.033,187.295 131.668,185.000 129.998 C 184.900 129.925,184.491 129.763,184.091 129.637 C 183.415 129.424,180.781 127.976,180.067 127.424 C 179.449 126.947,176.182 123.610,176.182 123.456 C 176.182 123.369,176.080 123.187,175.955 123.051 C 174.814 121.811,173.260 117.718,172.897 115.000 C 172.668 113.283,172.767 109.519,173.072 108.364 C 173.820 105.530,174.112 104.701,174.851 103.312 C 175.622 101.862,175.948 101.336,176.727 100.292 C 177.365 99.437,180.253 96.697,180.872 96.358 C 181.242 96.156,181.791 95.829,182.091 95.633 C 182.734 95.213,182.801 95.182,184.455 94.540 C 187.701 93.279,191.372 93.033,194.909 93.840 M80.909 96.831 C 80.909 96.977,80.990 97.238,81.090 97.412 C 81.189 97.585,81.383 98.055,81.520 98.455 C 82.032 99.942,83.284 103.376,83.443 103.727 C 83.533 103.927,83.731 104.459,83.882 104.909 C 84.033 105.359,84.369 106.300,84.629 107.000 C 84.888 107.700,85.225 108.641,85.378 109.091 C 85.530 109.541,85.730 110.073,85.822 110.273 C 85.915 110.473,86.104 110.964,86.243 111.364 C 86.382 111.764,86.834 113.025,87.248 114.167 C 87.661 115.309,88.000 116.311,88.000 116.394 C 88.000 116.477,84.691 116.545,80.646 116.545 L 73.292 116.545 73.479 115.955 C 73.582 115.630,73.739 115.200,73.828 115.000 C 73.918 114.800,74.443 113.368,74.997 111.818 C 75.550 110.268,76.081 108.836,76.176 108.636 C 76.272 108.436,76.488 107.823,76.657 107.273 C 76.826 106.723,77.025 106.191,77.100 106.091 C 77.174 105.991,77.322 105.623,77.428 105.273 C 77.535 104.923,77.874 103.941,78.182 103.091 C 78.490 102.241,78.867 101.177,79.020 100.727 C 79.172 100.277,79.404 99.664,79.534 99.364 C 79.665 99.064,79.963 98.272,80.198 97.604 C 80.584 96.503,80.909 96.150,80.909 96.831 M373.000 101.384 C 368.348 102.075,364.441 104.189,361.610 107.545 C 360.286 109.115,360.319 109.074,359.899 109.732 C 359.709 110.029,359.507 110.314,359.449 110.364 C 359.063 110.697,355.906 116.758,355.281 118.364 C 355.023 119.028,354.655 119.891,354.042 121.273 C 353.842 121.723,353.430 122.664,353.126 123.364 C 352.286 125.294,349.907 130.001,349.378 130.781 C 349.120 131.160,348.909 131.515,348.909 131.569 C 348.909 131.666,347.818 133.277,347.632 133.455 C 347.580 133.505,347.407 133.750,347.248 134.000 C 342.394 141.640,329.963 145.485,319.818 142.486 C 318.839 142.196,318.406 142.125,318.636 142.291 C 318.836 142.435,319.142 142.672,319.316 142.818 C 321.132 144.345,326.577 147.444,328.605 148.105 C 329.122 148.274,329.627 148.468,329.727 148.538 C 329.827 148.607,330.277 148.764,330.727 148.886 C 331.177 149.008,331.709 149.184,331.909 149.278 C 332.442 149.528,335.274 150.154,337.364 150.484 C 340.700 151.011,348.007 150.844,350.545 150.182 C 350.895 150.091,351.795 149.884,352.545 149.721 C 353.295 149.559,354.073 149.359,354.273 149.276 C 354.473 149.194,355.414 148.859,356.364 148.533 C 358.846 147.681,362.541 145.810,364.569 144.376 C 364.933 144.119,365.412 143.786,365.635 143.636 C 368.622 141.629,372.492 137.725,374.739 134.455 C 375.083 133.955,375.409 133.505,375.465 133.455 C 375.856 133.102,378.730 127.628,378.997 126.727 C 379.071 126.477,379.240 126.027,379.372 125.727 C 380.031 124.230,380.838 121.110,381.393 117.909 C 381.778 115.691,381.781 108.750,381.398 106.455 C 381.031 104.255,380.465 101.677,380.315 101.527 C 380.175 101.387,373.817 101.262,373.000 101.384 " stroke="none" fill="#545ca1" fill-rule="evenodd"></path><path id="path2" d="M304.474 108.106 C 304.293 108.577,304.349 115.718,304.541 116.668 C 304.639 117.151,304.843 118.348,304.995 119.329 C 305.275 121.130,305.398 121.602,306.396 124.727 C 309.748 135.215,317.563 141.569,325.314 140.107 C 334.373 138.399,336.477 126.293,328.455 122.034 C 327.346 121.446,325.346 120.571,324.792 120.432 C 324.520 120.363,324.087 120.198,323.830 120.064 C 323.574 119.930,323.279 119.820,323.175 119.819 C 322.215 119.814,315.635 117.005,313.182 115.553 C 310.440 113.931,306.014 109.907,305.106 108.211 C 304.858 107.746,304.627 107.708,304.474 108.106 " stroke="none" fill="#c3b154" fill-rule="evenodd"></path><path id="path3" d="M341.182 73.648 C 331.947 74.904,326.838 82.406,330.141 89.861 C 332.529 95.250,339.842 97.700,347.727 95.753 C 350.574 95.050,352.422 94.548,352.818 94.371 C 353.018 94.282,354.082 93.951,355.182 93.636 C 356.282 93.320,357.386 92.988,357.636 92.898 C 365.987 89.879,373.938 92.188,378.961 99.091 C 379.361 99.641,379.756 100.166,379.838 100.257 C 380.020 100.460,379.656 99.075,379.460 98.818 C 379.383 98.718,379.174 98.186,378.995 97.636 C 378.383 95.759,375.606 90.763,374.504 89.557 C 374.327 89.363,374.182 89.144,374.182 89.070 C 374.182 88.996,374.077 88.827,373.948 88.695 C 373.819 88.563,373.276 87.923,372.740 87.273 C 369.021 82.763,363.669 78.799,358.273 76.556 C 357.473 76.223,356.655 75.883,356.455 75.800 C 352.593 74.194,345.016 73.127,341.182 73.648 M304.247 112.182 C 304.247 113.132,304.278 113.520,304.315 113.045 C 304.353 112.570,304.353 111.793,304.315 111.318 C 304.278 110.843,304.247 111.232,304.247 112.182 M333.497 130.545 C 333.497 130.895,333.534 131.039,333.580 130.864 C 333.626 130.689,333.626 130.402,333.580 130.227 C 333.534 130.052,333.497 130.195,333.497 130.545 " stroke="none" fill="#c7b48c" fill-rule="evenodd"></path><path id="path4" d="M113.903 99.909 C 113.903 104.909,113.926 106.928,113.954 104.396 C 113.983 101.864,113.983 97.774,113.954 95.306 C 113.926 92.837,113.902 94.909,113.903 99.909 M35.136 92.671 C 35.311 92.717,35.598 92.717,35.773 92.671 C 35.948 92.625,35.805 92.588,35.455 92.588 C 35.105 92.588,34.961 92.625,35.136 92.671 M190.227 93.403 C 190.502 93.445,190.952 93.445,191.227 93.403 C 191.502 93.361,191.277 93.327,190.727 93.327 C 190.177 93.327,189.952 93.361,190.227 93.403 M236.447 101.818 C 236.447 106.268,236.471 108.089,236.500 105.864 C 236.529 103.639,236.529 99.998,236.500 97.773 C 236.471 95.548,236.447 97.368,236.447 101.818 M27.315 100.000 C 27.315 100.350,27.352 100.493,27.398 100.318 C 27.444 100.143,27.444 99.857,27.398 99.682 C 27.352 99.507,27.315 99.650,27.315 100.000 M241.682 110.136 C 244.657 110.164,249.525 110.164,252.500 110.136 C 255.475 110.108,253.041 110.085,247.091 110.085 C 241.141 110.085,238.707 110.108,241.682 110.136 M165.137 112.273 C 165.139 112.673,165.176 112.815,165.220 112.589 C 165.263 112.363,165.261 112.035,165.216 111.862 C 165.170 111.688,165.135 111.873,165.137 112.273 M236.448 127.636 C 236.448 133.086,236.472 135.316,236.500 132.591 C 236.528 129.866,236.528 125.407,236.500 122.682 C 236.472 119.957,236.448 122.186,236.448 127.636 M79.591 123.227 C 81.616 123.256,84.930 123.256,86.955 123.227 C 88.980 123.198,87.323 123.174,83.273 123.174 C 79.223 123.174,77.566 123.198,79.591 123.227 M203.627 125.773 L 203.000 126.455 203.682 125.828 C 204.316 125.245,204.447 125.091,204.308 125.091 C 204.278 125.091,203.971 125.398,203.627 125.773 M190.409 131.039 C 190.684 131.081,191.134 131.081,191.409 131.039 C 191.684 130.998,191.459 130.964,190.909 130.964 C 190.359 130.964,190.134 130.998,190.409 131.039 M34.955 131.762 C 35.130 131.807,35.416 131.807,35.591 131.762 C 35.766 131.716,35.623 131.679,35.273 131.679 C 34.923 131.679,34.780 131.716,34.955 131.762 " stroke="none" fill="#adb2d2" fill-rule="evenodd"></path></g></svg>